<svg xmlns="http://www.w3.org/2000/svg" viewBox="0 0 75.85 109.67"><title>aerius</title><g id="Layer_2" data-name="Layer 2"><g id="OBJECTS"><path d="M75.48,13.86l-.28-.31s-2.32-1-5-2.38l-2.7-6.62A1.9,1.9,0,1,0,64,6.15c.32.62.66,1.26.94,1.78a19,19,0,0,1-1.74-1.49c-3.5-3.5-9.34-9.35-17.78-4.75a8.84,8.84,0,0,0-4.6,10.12c.9,3.54,3.66,5.92,6.85,5.92a6.23,6.23,0,0,0,6.34-6.08,4.3,4.3,0,0,0-1.09-3,4.42,4.42,0,0,0-3.32-1.28l-.31.9a4.47,4.47,0,0,1,1.76,2.8,2.27,2.27,0,0,1-.94,1.81,2,2,0,0,1-2.2.27A3.26,3.26,0,0,1,46,10.49c-.07-1.32.82-2.56,2.5-3.5,2.51-1.41,3.9-.43,5.21,1.47a8.51,8.51,0,0,1,.73,8.25c-.17.39-.36.79-.54,1.19A19.38,19.38,0,0,0,52,23.25l-.64,4.19a22.09,22.09,0,0,1-14.9,17.64L23.05,49.53A30.67,30.67,0,0,0,10.89,57a15.68,15.68,0,0,0-2.43,3,5.27,5.27,0,0,0-3.27,3.2c-1.6,3.54-3.43,5.35-5.19,5.9a3.08,3.08,0,0,0,3.55-.41l.08-.07c1.92-1.59-.44,1.28-.44,1.28s2.4-.11,4.65-3.58l.06-.1c.44,3.21,1.65,7.15,4.57,9.09-.3,1.38-1.62,6.77-4.85,8.81l-.23.49a34,34,0,0,1-3.08,17.77l.08.57,3.13,3.35H6.1l-2.46,3.4h68a6.23,6.23,0,0,0,0-1.31c-.08-.26-3.31-5.41-3.31-5.41l-8.21.26s5.68-2.71,5.94-2.49S64,98,64,98l-5.58,0H58l3.93,0-3.08-5.78-.56-9.47s4.34-14.22,5.54-16l.61-8.33a23.29,23.29,0,0,0,2.43-5l2-5.91A23.24,23.24,0,0,0,69,32.94c-1.78-5.51-1.91-7.23-1.83-7.77,0-.28.09-.53.13-.78l0-.2c0-.17.06-.33.08-.48a1.29,1.29,0,0,0,0-.19c0-.18.06-.35.09-.5l0-.1.06-.32,0-.14c0-.07,0-.13,0-.19a.43.43,0,0,0,0-.11c0-.07,0-.13,0-.19l3.32-1.84,2.79-.24.24-.08C74.2,19.73,76.79,17.86,75.48,13.86ZM11.76,106.27l.12-.18-1.79-4.52c.24-1.22,1.94-9.76,2.52-11.43a39.58,39.58,0,0,1,3.73-5.09,34.16,34.16,0,0,1-3.19,17.53l3.42,3.66-3.06,0Zm8-.07L18,101.61S19.89,91.82,20.54,90s14-17.5,14-17.5a60.54,60.54,0,0,0,14.22-1.88c-.3,3.71-.89,9.31-1.89,12.06l0,.19.32,9.08.12.3,1.33,1.56.22,4.27.31.29-15.17,2.07L30.09,103s5.6,2.88,5.86,3.06ZM54.69,91.9l1.44,1.68L56.36,98H55.18l.14-.24-3-5.69-.55-9.27c.93-3.06,3.07-9.83,4.44-13.47-.32,4.79-.9,11-1.82,13.49Zm18.92-73-2.74.23-3.67,2c-1.37-.14-4.57-.5-5.19-.69a20.58,20.58,0,0,1-3.56-3.17l-.76.64s2.83,3.79,3.49,4.7,3.76,2.28,4.95,2.8c0,.75.2,2.6,1.9,7.84a22.2,22.2,0,0,1-.09,13.91l-2,5.91a21.84,21.84,0,0,1-2.54,5.12L56.54,63s-.06,1.41-.17,3.5C55.13,68.3,50.94,82,50.76,82.6l0,.18.57,9.47,2.74,5.26-4.27,0-.21-4-.12-.3-1.33-1.55-.31-8.81C49.4,78.41,50,67.5,50,67h0a39.75,39.75,0,0,0,0-4.94l-1,0s-.42,2.94-1,5.16c-6.77,3.44-14.92,4.39-19.11,4.65a31.57,31.57,0,0,0-.8-10.31l-1,.18c.55,6.39-1.24,10.06-1.43,10.45-1.51,1.77-13.38,15.75-14,17.62s-2.51,11.31-2.59,11.71l0,.28,1.57,4H8.42l-3.06-3.28A34.54,34.54,0,0,0,8.42,84.76c3.86-2.71,5.05-9.35,5.1-9.64l-.24-.51c-3.16-1.88-4.3-6.74-4.55-10a8.9,8.9,0,0,0,.74-4.37,16.48,16.48,0,0,1,2.13-2.57,29.63,29.63,0,0,1,11.76-7.18L36.81,46A23.12,23.12,0,0,0,52.38,27.59L53,23.41a19.11,19.11,0,0,1,1.8-5.09c.19-.4.38-.8.56-1.2a9.53,9.53,0,0,0-.83-9.23c-1.16-1.68-3.1-3.7-6.52-1.78C45.29,7.65,45,9.55,45,10.54a4.22,4.22,0,0,0,2.54,3.57,3,3,0,0,0,3.25-.44,3.24,3.24,0,0,0,1.28-2.59,4.29,4.29,0,0,0-1-2.45,3,3,0,0,1,2,3,5.13,5.13,0,0,1-1.39,3.42,5.19,5.19,0,0,1-3.95,1.66c-3.15,0-5.23-2.6-5.88-5.17a7.77,7.77,0,0,1,4.11-9C53.72-1.67,59,3.63,62.53,7.14s10.7,6.67,12.07,7.25C75.41,17.15,74,18.57,73.61,18.91Z"/><path d="M59.91,13.05a20.07,20.07,0,0,1,3.92-1.15S61.32,9.72,59.91,13.05Z"/></g></g></svg>