<svg xmlns="http://www.w3.org/2000/svg" viewBox="0 0 70.16 122.96"><defs><style>.cls-1{fill:#d8bfa0;}</style></defs><title>Asset 14</title><g id="Layer_2" data-name="Layer 2"><g id="OBJECTS"><path class="cls-1" d="M60.18,80.59c6.38-5.64,13-11.48,8.53-26.76-3.06-10.5-12.09-15.1-19.45-16,.75-1.33.88-2.2.39-2.68a.45.45,0,0,0-.19-.11h0a.91.91,0,0,0-.31-.12,15.9,15.9,0,0,1-2.76-1.47,7.3,7.3,0,0,0,1.69-1.26A7.15,7.15,0,0,0,39.34,21c-.09-.61-.17-1.22-.26-1.84a33.52,33.52,0,0,0-2-8.62l.08-.12L37,10.32A18.9,18.9,0,0,0,33,4.4,14.55,14.55,0,0,0,20.63.1C18.46-.47,10.56,7.28,8.92,8.92S-.48,18.47.1,20.64A14.57,14.57,0,0,0,4.4,33c4.82,4.71,9.88,5.4,14.77,6.07l1.84.25A7.15,7.15,0,0,0,32.2,48.07a7.3,7.3,0,0,0,1.26-1.69,17.94,17.94,0,0,1,1.47,2.76.91.91,0,0,0,.12.31h0a.62.62,0,0,0,.12.19,1,1,0,0,0,.76.29,6,6,0,0,0,2.87-1.25l.09-.07c4.18,4.51,6.15,8.53,6,12.24-.21,6-5.7,10.7-12,16.21-8.6,7.44-18.34,15.87-18.61,30.15-.21,11.42,5,15.47,5.22,15.64l.3.1,21.42-.09V123h1v-.09l20.44-.08.5-.5c0-5-2.71-8-5.58-11.12-3.53-3.86-7.18-7.85-6.5-16.26C51.59,88.19,55.76,84.5,60.18,80.59ZM40.07,24.21a4.15,4.15,0,0,1,7.09,2.94,4.11,4.11,0,0,1-3.49,4.08,13.34,13.34,0,0,1-3.21-5.18c-.19-.57-.35-1.14-.49-1.72Zm-.83,1.21c.09.32.17.63.27.95a14.64,14.64,0,0,0,2.77,4.86,4.16,4.16,0,0,1-2.21-1.15,4.11,4.11,0,0,1-1.21-2.93A4.24,4.24,0,0,1,39.24,25.42ZM36,10.46c-1.06,1.59-11,16.05-25.3,25.25l-.34.22a18.07,18.07,0,0,1-4.87-3.28C21.21,22.51,32,6.44,32.65,5.47A17.89,17.89,0,0,1,36,10.46ZM1.06,21.16c.64-.09,1.72-.63,3.73-2.16a79.88,79.88,0,0,0,7.49-6.72c1.54-1.53,8.41-8.54,8.83-11.22A13.57,13.57,0,0,1,31.94,4.74l-.09.13c-.11.17-11,16.69-27,27l-.13.09A13.56,13.56,0,0,1,1.06,21.16ZM30.08,46a4.15,4.15,0,1,1-5.87-5.88l.12-.1c.58.14,1.15.3,1.72.49a13.34,13.34,0,0,1,5.18,3.21A4.12,4.12,0,0,1,30.08,46Zm-4.66-6.71a4.24,4.24,0,0,1,1.73-.38,4.13,4.13,0,0,1,4.08,3.43,14.48,14.48,0,0,0-4.86-2.78ZM32.2,38a7.16,7.16,0,0,0-10.11,0c-.16.16-.3.32-.44.49-.79-.13-1.57-.24-2.34-.35a34.61,34.61,0,0,1-7.85-1.7c13.27-8.61,22.77-21.64,25-24.82a34.8,34.8,0,0,1,1.66,7.74c.11.77.22,1.55.35,2.34-.17.14-.33.28-.49.44a7.15,7.15,0,0,0,7.31,11.84,18.4,18.4,0,0,0,2.24,1.36c-2.7,1.26-6.62,5.15-6.84,5.37s-4.12,4.14-5.38,6.84a17,17,0,0,0-1.35-2.24A7.11,7.11,0,0,0,32.2,38Zm24.61,73.9c2.64,2.88,5.13,5.61,5.31,9.94l-8.4,0c-.17-4.72-2.79-7.61-5.57-10.65-3.53-3.86-7.18-7.85-6.5-16.26.54-6.72,5.1-10.48,9.94-14.45,6.93-5.69,14.09-11.58,9.12-26.64l-.16-.48-.95.32.16.47C64.52,68.54,57.93,74,51,79.69c-4.78,3.93-9.73,8-10.3,15.14-.71,8.85,3.26,13.19,6.76,17,2.64,2.89,5.14,5.63,5.31,10l-10.56,0c-.18-4.45-2.31-7.44-4.38-10.31a22.46,22.46,0,0,1-4.13-7.75c-1.37-5.39.2-10.82,4.93-17.11l.31-.39-.8-.61-.3.4c-4.87,6.46-6.54,12.33-5.11,18A23.17,23.17,0,0,0,37,112.14c2.07,2.87,4,5.61,4.19,9.73L28,121.93l-.12-.11c-1.11-1-4.72-5.06-4.54-14.58.26-13.83,9.82-22.11,18.26-29.42C48.15,72.17,53.79,67.28,54,60.9c.16-4.38-2.33-9.07-7.62-14.36L46,46.19l-.71.71.36.35c5.07,5.08,7.47,9.53,7.32,13.61-.21,6-5.7,10.7-12,16.21-8.59,7.44-18.34,15.87-18.6,30.15-.17,8.6,2.71,13,4.25,14.71L20,122c-.76-.68-4.89-4.81-4.7-14.72.26-13.83,9.82-22.11,18.26-29.42C40,72.17,45.68,67.28,45.91,60.9c.14-4-1.89-8.18-6.2-12.87a39.64,39.64,0,0,0,4.45-3.87,36.67,36.67,0,0,0,4.52-5.36h0c7.11.7,16.08,5.05,19.06,15.31,4.27,14.68-2.09,20.3-8.23,25.73-4.37,3.87-8.9,7.87-9.47,15C49.34,103.68,53.31,108,56.81,111.85Z"/></g></g></svg>