<svg xmlns="http://www.w3.org/2000/svg" xmlns:xlink="http://www.w3.org/1999/xlink" viewBox="0 0 882.52 908.08"><defs><style>.cls-1{fill:none;}.cls-2{clip-path:url(#clip-path);}.cls-3{clip-path:url(#clip-path-2);}</style><clipPath id="clip-path"><rect class="cls-1" x="20.22" y="559.63" width="843.92" height="348.44"/></clipPath><clipPath id="clip-path-2"><rect class="cls-1" x="0.78" width="882.81" height="363.88"/></clipPath></defs><title>Asset 19</title><g id="Layer_2" data-name="Layer 2"><g id="Layer_1-2" data-name="Layer 1"><g class="cls-2"><path d="M59.53,634.86q-11.46,3.9-20.67-2.22T24.78,612.27q-5.25-15.42-4.07-25.07l9.71-3.29a64.89,64.89,0,0,0,.41,12.81,64.14,64.14,0,0,0,2.92,12.91q3.42,10.08,9,13.87A13.18,13.18,0,0,0,55.11,625a14.61,14.61,0,0,0,6.79-4.33,18,18,0,0,0,3.23-7.85A86.76,86.76,0,0,0,66.27,598q.21-13.57,4.38-20.78T84.36,566.8q10-3.4,18.51,2.14t12.73,17.88a62,62,0,0,1,3.33,25.42l-9.86-.18a56.68,56.68,0,0,0-2.57-22.39q-2.73-8-7.7-11.37A12,12,0,0,0,87.71,577a15.07,15.07,0,0,0-6.8,4.2,16.24,16.24,0,0,0-3.38,7.38,73.43,73.43,0,0,0-1.21,13.88q-.21,15.29-4.07,22.32t-12.72,10ZM226.74,744.29,142.59,788l-7.08-7.77,32.8-55c1.42-2.49,3.28-5.53,5.61-9.12a62.7,62.7,0,0,1,4.37-6.28,140.93,140.93,0,0,1-16.32,9l-57.1,27.89-7.11-7.79L149,659.12l7.62,8.34-32,48.84a214.18,214.18,0,0,1-13,17.76,155.66,155.66,0,0,1,19.92-11.43l52.21-25.44,7.61,8.34-29.87,50.61a167.29,167.29,0,0,1-12.78,18.53,191.78,191.78,0,0,1,19-11.29L219.13,736Zm76.15,141.55-10.08-4.4L294,850.17l-33.63-14.7-22,22.17-9.87-4.31,70-69.77,8.2,3.58Zm-35.21-57.63,27.14,11.86,1.62-30.27Q296.7,804,297.8,796a115.82,115.82,0,0,1-8.89,10.53Zm168.41,40,.47-9.5,31.08,1.55-2.23,44.49a104,104,0,0,1-14.91,2.77,112.93,112.93,0,0,1-17.46.32q-20.78-1-31.72-14t-9.87-35.21q.71-14.27,7-24.7a38.94,38.94,0,0,1,17.31-15.58q11-5.13,25.5-4.41a68.61,68.61,0,0,1,27,6.78l-4.61,9.15a61,61,0,0,0-23.55-6.43q-16.72-.84-26.59,8.64t-10.77,27.1q-.93,18.54,7.64,28.55t26.09,10.92a78.7,78.7,0,0,0,18.68-1.28l1.4-28.16Zm177.36,2.56-8,3.08-58.06-64.67-.49.18q4.27,8.69,9,21.07l20.86,54.41-9.18,3.52-32.8-85.51,15-5.74,54.14,60.16.48-.18.26-81,14.85-5.69,32.8,85.52-9.94,3.8-21.13-55.1q-3.65-9.48-7.08-20.91l-.49.19ZM786.34,741.38l-7.6,8-29-11.88L724.43,764l13.26,28.3-7.44,7.78-41.47-89.73,6.19-6.47Zm-66.22,13.26,20.47-21.41L712.71,721.3q-5.33-2.22-12.5-6a117,117,0,0,1,6.83,12Zm59.39-194,84.11,36.24L858.82,608,768.43,623.6l-.21.48Q781,628.5,791.38,633l47.82,20.6-3.89,9L751.2,626.35,756,615.3,846,599.73l.2-.44q-1.63-.57-10.2-3.79t-12.2-4.91L775.57,569.8Z"/></g><g class="cls-3"><path d="M76.45,302.67q11.28,3.82,14.83,14.17t-1.23,24.35q-5.16,15.21-11.83,22.06L68.61,360A63.37,63.37,0,0,0,76,349.73a64.45,64.45,0,0,0,5.43-11.87q3.36-9.92,1.32-16.23A13.13,13.13,0,0,0,74,313.06a14.09,14.09,0,0,0-7.89-.68,17.32,17.32,0,0,0-7.24,4.19,87.13,87.13,0,0,0-9.75,10.88q-8.31,10.47-15.92,13.61t-17-.06Q6.31,337.64,3,328.24t.78-21.63a60.77,60.77,0,0,1,12.65-21.85l7.59,6a56.59,56.59,0,0,0-11.4,19.09q-2.67,7.91-.81,13.5a11.8,11.8,0,0,0,7.9,7.65,15.06,15.06,0,0,0,7.84.8,16.14,16.14,0,0,0,7.09-3.73,72.56,72.56,0,0,0,9.26-10.15q9.36-11.84,16.57-15t16-.23Zm64-192.55,50.44,78.68-7,7.67-56.92-27.28q-3.86-1.75-9.45-4.71a59.65,59.65,0,0,1-6.56-3.7A140.19,140.19,0,0,1,121.2,176l32.5,53.53-7,7.67L63.79,194.11l7.5-8.22,50.83,27a211.18,211.18,0,0,1,18.61,11.13,150.87,150.87,0,0,1-13-18.56L98.06,156.55l7.48-8.2,52.39,24.78A170.22,170.22,0,0,1,177.26,184a183.54,183.54,0,0,1-12.8-17.7l-31.53-48Zm187.64-3-9.95,4.36L296.27,89.73l-33.14,14.5L264.45,135l-9.72,4.25L251.09,41.9l8.08-3.54ZM262.73,94.1l26.76-11.71L268.67,61q-4-4.06-9.09-10.26a112.87,112.87,0,0,1,1.69,13.49ZM434.26,53.81l-.46-9.36,30.65-1.51,2.16,43.84A95.45,95.45,0,0,1,452.23,91a111.27,111.27,0,0,1-17.09,2q-20.47,1-32.48-10.61T389.57,48.8q-.69-14.07,4.43-24.94A38.14,38.14,0,0,1,409.47,6.92Q419.79.8,434.05.09a68.15,68.15,0,0,1,27.16,4l-3.63,9.47a59.87,59.87,0,0,0-23.75-4q-16.47.8-25.25,11t-7.89,27.67q.9,18.24,10.27,27.24t26.65,8.14a78.64,78.64,0,0,0,18.2-3l-1.37-27.76Zm153.46,69.35-7.91-3,.16-85.7-.46-.17q-2.62,9.18-7.32,21.41l-20.63,53.59-9-3.47L575,21.51l14.75,5.67L589.64,107l.45.17L643.75,48l14.66,5.64L626,137.89l-9.81-3.78,20.89-54.29q3.58-9.33,8.62-20l-.48-.19ZM735.46,235.91,728,228l13-28L716,173.9l-28.45,11.77L680.21,178l90.23-36.76,6.09,6.39Zm-10.08-65.85,20.16,21.13,13-26.89q2.43-5.15,6.52-12.05a111.68,111.68,0,0,1-12.1,6.2ZM882.52,325l-83,35.55-4.72-11L845,274.34l-.19-.45Q833,280,822.76,284.4l-47.18,20.21-3.81-8.88,83-35.56,4.66,10.89-50,74.95.19.45q1.47-.78,9.63-4.72c5.43-2.64,9.36-4.42,11.78-5.37L878.67,316Z"/></g><path d="M0,465.16a35,35,0,1,1,35,35,35,35,0,0,1-35-35Zm812.54,0a35,35,0,1,1,35,35,35,35,0,0,1-35-35Z"/></g></g></svg>