<svg xmlns="http://www.w3.org/2000/svg" viewBox="0 0 92.62 121.74"><defs><style>.cls-1{fill:#d8bfa0;}</style></defs><title>Asset 13</title><g id="Layer_2" data-name="Layer 2"><g id="OBJECTS"><path class="cls-1" d="M77.79,25.34a20.31,20.31,0,0,1,3.91-1.16S79.19,22,77.79,25.34Z"/><path class="cls-1" d="M86.29,115l-9.88.26s6.83-2.7,7.15-2.48-2.47-2.72-2.47-2.72l-6.71,0-1.78,0-6.72,0-3.22.36-2.18-5.55v-4.39c.22-1,3.81-17.5,7.16-23.35.79-1.37,1.86-3,3-4.77.56-.85,1.14-1.76,1.74-2.69,6.09,3.44,14.25,4.6,14.25,4.6L79,83.82l-2.29,1.59-2.82.71v4.94l5.82-3.53L92.62,74.47l-1.41-5L78.31,58.85a24.74,24.74,0,0,0,2.11-8.36c.31-8.11-4.16-15.41-5.43-17.3l1.15-.64.09,0a14.14,14.14,0,0,0,6.56,1.08l.16,4.2L83,38,85,41.37l.93-.16,1-5.36,3.81-5.2,0-.65L80.32,19.49C80,14.09,78.18,3.34,69,.63A13.62,13.62,0,0,0,61.46.45,13.62,13.62,0,0,0,59.62.32c-5.27,0-9.74,2.53-12,6.75A11.52,11.52,0,0,0,48.21,19l.91-.31c0-.06-.28-6.16,3.21-9.84A9.59,9.59,0,0,1,59.62,6c5.74,0,8.43,6.11,9.68,11.39a9.21,9.21,0,0,0-1.72,1.31l-3.75-2.37-.76.4c0,.16-.21,3.81,1.67,6.18a49.84,49.84,0,0,0-3.2,8.74c-1.12,3.84-2.19,7.47-4.78,10.71C52.43,47.81,47.18,53.79,41,57.11a27.53,27.53,0,0,1-8,2.75l-1.71-2c-1.45-1.7-3-3.52-4.64-5.48a21.78,21.78,0,0,1-5-17.89c.22-1.2.85-3,1.4-3.26a6.48,6.48,0,0,1,3.26-.38c5.2.55,16,1.69,21.37-8.5l-.26-.7c-.23-.09-2.39-.9-5.27-1.83h0l-.52-.15c-4.78-1.5-11.24-3.18-14.28-2.38-2.25.59-3.85,2.82-5,5.21a8.79,8.79,0,0,0-1.19-4.92,8.23,8.23,0,0,0-5.81-3.47A130.4,130.4,0,0,0,.86,12l-.48.35C.3,12.65-1.62,19,4,25.13c2.21,2.41,6.16,4.16,11.76,5.21a1.19,1.19,0,0,1,.81.55,1.26,1.26,0,0,1,.15,1,20.16,20.16,0,0,1-.64,2c-5,13-.25,22.6,4.66,29.59a37.17,37.17,0,0,0-7.35,4.43C7.4,72.58.24,80.8.24,93.41s4.46,20.87,13.28,24.93H11.38l-3,3.4H90.28a5.11,5.11,0,0,0,0-1.31C90.18,120.16,86.29,115,86.29,115ZM53.73,77.63l.1-.09.29-.25c1,2.86,4.61,14.14,1.32,23.84l0,4.22L57.21,111l.12.09-8.87,1a24.87,24.87,0,0,0,1.86-2.74c5-8.51,4.83-19.3-.41-29A23.19,23.19,0,0,0,53.73,77.63ZM59.62,5a10.6,10.6,0,0,0-8,3.12c-2.57,2.72-3.26,6.5-3.43,8.73a10.6,10.6,0,0,1,.36-9.34c2-3.89,6.2-6.22,11.09-6.22C69.31,1.32,74,12,75.56,16.53a8.79,8.79,0,0,0-5.35.42C68.31,9.15,64.66,5,59.62,5ZM64.07,17.7l2.83,1.79a14.08,14.08,0,0,0-1.18,1.64l-.46.83A9,9,0,0,1,64.07,17.7ZM17,34.25a22,22,0,0,0,.68-2.1,2.32,2.32,0,0,0-.27-1.8,2.22,2.22,0,0,0-1.48-1c-5.37-1-9.14-2.66-11.2-4.9-4.56-5-3.84-10-3.52-11.41.84,0,2.75.25,5.61.66-.15,1.37-.52,6.83,2.44,10.54l.31.39.78-.63-.31-.39c-2.66-3.33-2.36-8.45-2.23-9.76,1.4.2,3,.46,4.76.77C12.45,16,12.07,21.45,15,25.17l.31.39.78-.62-.31-.39c-2.65-3.33-2.36-8.41-2.23-9.75l1.57.28a7.32,7.32,0,0,1,5.15,3c1.9,3,.75,7.3.13,9.61-.09.34-.16.63-.22.86l1,.25.1-.34c.78-2.77,2.61-9.27,6.28-10.23,1.68-.44,4.61,0,7.69.7-.5,1.43-2.33,5.95-6,7.83l-.44.23.45.89.45-.23c4.12-2.11,6-7,6.53-8.49,1.58.4,3.17.86,4.63,1.31-.51,1.45-2.34,5.94-6,7.81l-.44.23.45.89.45-.23c4-2.07,6-6.85,6.5-8.4,2.11.67,3.83,1.29,4.67,1.6-5.13,9-15.22,8-20.12,7.47a7.21,7.21,0,0,0-3.76.46c-1.36.59-2,3.85-2,4A22.81,22.81,0,0,0,25.89,53c1.44,1.71,2.79,3.31,4.08,4.82a82.38,82.38,0,0,0-9.91,2.78C15.93,54.09,12.71,45.45,17,34.25ZM1.24,93.41c0-12.21,7-20.17,12.78-24.71a36.73,36.73,0,0,1,7.7-4.56h0A42.82,42.82,0,0,1,32.3,61l.6-.11h0A28.63,28.63,0,0,0,41.51,58c6.3-3.41,11.64-9.48,16-15,2.72-3.4,3.81-7.12,5-11.06a50.63,50.63,0,0,1,3-8.28A5.34,5.34,0,0,0,69,24.91h.5v-1H69A4.33,4.33,0,0,1,66,22.77c.2-.37.41-.75.63-1.13A11.15,11.15,0,0,1,67.76,20l1.43.9.54-.84-1.27-.8a8.22,8.22,0,0,1,1.06-.83c.14.67.28,1.34.39,2L70,21l1-.16-.08-.49c-.13-.78-.29-1.58-.46-2.37a7.92,7.92,0,0,1,5.48-.29c.22.72.33,1.16.33,1.17l.12.49,1-.23-.11-.49s0-.21-.15-.54c.38.16.66.29.77.35l11.82,12-3.63,5-.89,4.36-1.21-2.09L83.77,33l-.57-.48a13.15,13.15,0,0,1-6.76-1c-.06,0-4-2.15-4.86-5.76l-1,.07a9.72,9.72,0,0,0,3.29,7.53c.25.35,5.86,8.37,5.53,17.11-.27,7-5.68,15.32-9.63,21.41-1.14,1.76-2.22,3.42-3,4.81-3.53,6.15-7.14,23-7.29,23.7V105l2.05,5.32H58.05l-1.63-5v-3.89C60.22,90,55.13,77.05,54.8,76.25l-1.93-6.92-1,.15s.11,4.12.08,8.3a21,21,0,0,1-3,2c-4.31,2.32-8.27,2.29-12.64,2l-1-.06c-1-.06-1.94-.12-2.94-.16C26,81.32,20.94,82.83,17.9,85.93c-2.53,2.58-3.68,6.18-3.42,10.71.4,7.07,7.26,11.06,14,11.06q.48,0,1,0c5.94-.34,12.69-4.07,12.16-13.46a19,19,0,0,0-1.67-6.57c6.48-1.81,8.69-4.54,9.43-6.14,4.74,9.18,4.81,19.32.11,27.33A23.38,23.38,0,0,1,47,112.24l-2.14.24L40.26,115l2.49,1.08a23.06,23.06,0,0,1-3.7,2.07l-18.75.18h-4C6.31,114.85,1.24,106.52,1.24,93.41ZM36,82.76l.26.39c.23.35.45.7.66,1l.38.63.5.86c.12.23.24.45.35.68s.33.62.47.92a.83.83,0,0,1,.07.13,18.49,18.49,0,0,1,1.86,6.85c.49,8.66-5.74,12.1-11.22,12.41-6.52.38-13.51-3.3-13.9-10.09-.24-4.24.82-7.58,3.15-10,2.83-2.9,7.61-4.31,13.81-4.07,1,0,2,.1,2.9.16Zm5.33,35.37a21,21,0,0,0,2.46-1.58c1.67.72,3.33,1.44,3.48,1.53Z"/></g></g></svg>