<svg xmlns="http://www.w3.org/2000/svg" xmlns:xlink="http://www.w3.org/1999/xlink" viewBox="0 0 56.98 206.48"><defs><style>.cls-1{fill:none;}.cls-2{clip-path:url(#clip-path);}.cls-3{fill:#d8bfa0;}.cls-4{fill:#2a222f;}</style><clipPath id="clip-path" transform="translate(-25.71 -6.29)"><circle class="cls-1" cx="52.15" cy="52.15" r="52.15" transform="translate(-7.73 95.2) rotate(-80.72)"/></clipPath></defs><title>Asset 9</title><g id="Layer_2" data-name="Layer 2"><g id="OBJECTS"><g class="cls-2"><path class="cls-1" d="M32.4,43.06c5.18-9.65-3.53-7.65,1.79-21,1.42-3.57,4.19-6.18,5.86-8.82a12.92,12.92,0,0,1,1.41-1.76c4-4.22,10.78-7.25,17.26-3.36,3.55,2.14,5.56,5.93,6.47,10.23,1.06,5,1.58,6.14,9.09,13.81,3.59,3.66,4.15,9.36,1.53,13.06C62.66,63.72,25,56.93,32.4,43.06Z" transform="translate(-25.71 -6.29)"/><path class="cls-3" d="M67.57,212.76c-2.15,0-5.66-.33-9.06-.66-4.17-.39-8.89-.84-10-.52-2.22.63-13.43,1.62-16.7.3l-.31-.46c0-.15-.16-14.83,1.94-24.89,1.11-5.35.74-17.52.38-29.29-.31-10.22-.61-19.88.14-24,1.55-8.5-.41-43.52-.43-43.87L32.63,77c-1.91-4-1.08-7.93-.19-12.08.31-1.47.64-3,.85-4.57a27,27,0,0,0-.64-10.64v-.3a3.43,3.43,0,0,1,1.68-2.18,3.84,3.84,0,0,1,2.6-.23,5,5,0,0,1,2.47-1.1,4.51,4.51,0,0,1,3.28-1.28,2,2,0,0,1,.82.3,3.5,3.5,0,0,1,3.17-.74c.63-.19,3.13-1,4.39-1.51l.46-.2.39.92-.46.2c-1.48.63-4.51,1.55-4.64,1.59h-.32a2.54,2.54,0,0,0-2.62.77l-.77-.06h0a.91.91,0,0,0-.6-.28,3.74,3.74,0,0,0-2.58,1.17l-.28.11a4,4,0,0,0-2.22,1L36.9,48a3.09,3.09,0,0,0-2.13.11,2.35,2.35,0,0,0-1.12,1.43,28,28,0,0,1,.64,10.93c-.23,1.62-.56,3.15-.87,4.64-.9,4.18-1.67,7.79.15,11.52l0,.19.88,12.55c.08,1.45,2,35.5.41,44.11-.72,4-.43,13.58-.12,23.75.36,11.83.73,24.06-.41,29.52-1.89,9.1-1.92,22.05-1.91,24.33,3.4,1.05,13.71.13,15.74-.44,1.31-.38,5.52,0,10.39.49,3.6.34,7.3.7,9.35.65,4.56-.11,9.81-.83,9.86-.84H78a16.16,16.16,0,0,0,3.64.06c-.71-3.22-4.37-19.84-5.79-28.92-1.08-6.9-2-29.81-2.85-68.09-.12-5.58-.52-11.33-.9-16.89-.64-9.27-1.19-17.27-.25-21.62,1.55-7.21,4.27-25.18,3.59-27.38a1.92,1.92,0,0,0-.88-1.21A2.16,2.16,0,0,0,73,46.81l-.65-.35a1.78,1.78,0,0,0-.79-1.2,2.78,2.78,0,0,0-1.89-.12l-.59-.7c-.06.12,0,.18,0,.18s-.27-.57-3-1.15c-3.81-.82-4.68-1.86-4.81-2L61,41l.83-.56.27.4c0,.07.86.93,4.2,1.65,2,.43,3.23.95,3.63,1.59a3.37,3.37,0,0,1,2.17.31,2.6,2.6,0,0,1,1.13,1.36A2.92,2.92,0,0,1,75,46a2.81,2.81,0,0,1,1.4,1.81c.79,2.6-2.17,21.34-3.57,27.88-.91,4.21-.36,12.15.27,21.34.38,5.57.78,11.34.9,16.94.81,38.23,1.77,61.1,2.84,68,1.56,10,5.86,29.2,5.9,29.39l-.42.61a17.53,17.53,0,0,1-4.4,0c-.65.09-5.57.74-9.9.84Z" transform="translate(-25.71 -6.29)"/><path class="cls-3" d="M53.09,56.68c-4.18,0-5.62-6.29-6.58-10.46-.12-.51-.23-1-.34-1.44l-.12-.48,1-.24.12.48c.11.45.22.94.34,1.45.89,3.86,2.23,9.69,5.61,9.69h0c11.93,0,13-12,13.07-12.53l0-.49,1,.07,0,.5c0,.14-1.2,13.45-14.07,13.45Z" transform="translate(-25.71 -6.29)"/><path class="cls-3" d="M28.94,92.23h-.16A2.42,2.42,0,0,1,27,91.14c-3-4.18.14-19.66.81-22.72.63-2.9,1.1-5.63,1.51-8,.94-5.48,1.62-9.44,3.42-11.49l.8.08a14.66,14.66,0,0,1,2,7.18l.37,19.32c4.83-1.89,17.43-6.87,18.89-7.84,1.71-1.14,1.76-1.2,4.58-7.08l.3-.63c3.07-6.41,6.78-7.59,8.37-8.09l.18-.06a1.17,1.17,0,0,1,1.22.14.89.89,0,0,1,.28.54l.42.07a1.91,1.91,0,0,1,.56,1l.27.07A1.85,1.85,0,0,1,70.65,56l-.51.47a2.44,2.44,0,0,1-.81,1.26A14.83,14.83,0,0,0,66,63.32c-2.24,5.89-6,8.27-6.1,8.37C57.23,73.79,33.62,92.23,28.94,92.23Zm4.12-42.09c-1.31,2-2,5.78-2.74,10.41-.42,2.42-.89,5.16-1.53,8.08-1.94,8.91-3,19.14-1,21.93a1.46,1.46,0,0,0,1.06.67H29c3.24,0,19.84-12.11,30.33-20.36A16.71,16.71,0,0,0,65.07,63,15.6,15.6,0,0,1,68.61,57c.42-.44.55-.6.54-.78l.16-.39.67-.61a1,1,0,0,0,.31-.89l-.55-.4a.55.55,0,0,0-.06-.45l-.24.12-.72-.56a1.77,1.77,0,0,0,.06-.4l-.21,0-.19.06c-1.46.47-4.88,1.55-7.77,7.57l-.3.63c-2.86,6-3,6.19-4.93,7.49-1.57,1-14.33,6.08-19.74,8.19L35,76.21l-.39-20A13.93,13.93,0,0,0,33.06,50.14Z" transform="translate(-25.71 -6.29)"/><path class="cls-3" d="M63.57,58.39l-.81-.59.3-.4A15.61,15.61,0,0,1,68.55,53l.18-.09,0-.26,1,.09,0,.5c0,.3-.21.39-.69.65A14.67,14.67,0,0,0,63.87,58Z" transform="translate(-25.71 -6.29)"/><path class="cls-3" d="M64.74,59.28l-.82-.57.28-.41A17.75,17.75,0,0,1,70,53.63l.45-.22.44.89-.45.22S66.77,56.37,65,58.87Z" transform="translate(-25.71 -6.29)"/><path class="cls-3" d="M66.05,59.89l-.82-.59.3-.4c2.64-3.7,4-3.31,4.37-3.1l.43.25-.49.86-.4-.22c-.12,0-1.11,0-3.1,2.79Z" transform="translate(-25.71 -6.29)"/><path class="cls-3" d="M67.21,51l-.89-.46.23-.44a50,50,0,0,0,2.52-5.62l.17-.47.94.34-.17.48a51.53,51.53,0,0,1-2.57,5.73Z" transform="translate(-25.71 -6.29)"/><path class="cls-3" d="M55.34,61.08a7.5,7.5,0,0,1-.82,0C44.81,60,43.08,46.2,43,45.61l-.06-.5,1-.11.06.49c0,.14,1.71,13.62,10.62,14.56a7.32,7.32,0,0,0,4.14-.83L59.2,59l.46.89-.45.22A8.37,8.37,0,0,1,55.34,61.08Z" transform="translate(-25.71 -6.29)"/><path class="cls-3" d="M55,51,54,50.62l.18-.47a5.74,5.74,0,0,1,4.27-3.29A12.12,12.12,0,0,0,63.16,45l.41-.29.59.8-.4.29a13.08,13.08,0,0,1-5.09,2.09,4.82,4.82,0,0,0-3.53,2.68Z" transform="translate(-25.71 -6.29)"/><path class="cls-3" d="M71.35,51l-.91-.42.21-.45c1.14-2.46,1.73-4,1.74-4l.18-.47.93.37-.18.46s-.61,1.55-1.76,4Z" transform="translate(-25.71 -6.29)"/><path class="cls-3" d="M54.32,66C42.4,66,39.23,47.23,39.1,46.42L39,45.93l1-.16.08.49c0,.19,3.17,18.71,14.25,18.71h.83l0,1h-.87Z" transform="translate(-25.71 -6.29)"/><path class="cls-3" d="M52.61,70l-.49,0C41,69.2,36.74,48.49,36.57,47.61l-.1-.49,1-.2.1.5c0,.2,4.24,20.83,14.63,21.52l.5,0Z" transform="translate(-25.71 -6.29)"/><path class="cls-3" d="M50.28,101.29l-.37-.33c-2.62-2.39-5.5-10.62-7.47-17.1l-.14-.48,1-.29.15.48c2.72,9,5.27,14.9,7.18,16.65l.37.33Z" transform="translate(-25.71 -6.29)"/><path class="cls-3" d="M39.94,74.9l-.12-.49c-1.41-5.47-2.62-11-3.25-14.66C35,50.6,33,49.71,33,49.7l-.48-.12.26-1,.49.12c.43.1,2.65,1.09,4.31,10.84.63,3.68,1.84,9.13,3.24,14.59l.12.48Z" transform="translate(-25.71 -6.29)"/><path class="cls-4" d="M39.59,60.58s1.36,6,3.33,12.69" transform="translate(-25.71 -6.29)"/><path class="cls-3" d="M42.58,73.89l-.14-.48c-1.95-6.63-3.32-12.66-3.34-12.72L39,60.21,40,60l.11.48c0,.06,1.37,6.06,3.32,12.66l.14.48Z" transform="translate(-25.71 -6.29)"/><path class="cls-3" d="M54.1,89.82l-.5,0c-2-.08-4.09-3.12-6.44-9.28L47,80.05l.94-.36.17.47c2.84,7.43,4.7,8.6,5.55,8.64l.5,0Z" transform="translate(-25.71 -6.29)"/><path class="cls-4" d="M42.92,64.73s.8,3.41,2.07,7.69" transform="translate(-25.71 -6.29)"/><path class="cls-3" d="M44.65,73l-.14-.48c-1.25-4.25-2.07-7.68-2.08-7.72l-.11-.49,1-.22.12.48s.81,3.45,2.06,7.66l.14.48Z" transform="translate(-25.71 -6.29)"/><path class="cls-3" d="M51.54,91a1.52,1.52,0,0,1-.43,0l-.48-.13.27-1,.47.14c.1,0,2.64.38,4.83-6.84,2.4-7.93,4.28-13.08,4.29-13.13l.18-.47.94.34-.18.47c0,.05-1.88,5.18-4.28,13.08C55.09,90.24,52.56,91,51.54,91Z" transform="translate(-25.71 -6.29)"/><path class="cls-3" d="M51.93,81.85,51.47,81l.45-.23a8.86,8.86,0,0,0,3.72-4.07l.18-.46.93.36-.18.47a9.63,9.63,0,0,1-4.19,4.58Z" transform="translate(-25.71 -6.29)"/><path class="cls-3" d="M44.6,113.5h-.5v-1h.5c6.2,0,8-4.47,11.46-13.36l.15-.39C59.79,89.66,63.42,77.22,68.45,60l.42-1.43,1,.28-.42,1.43c-5,17.24-8.67,29.7-12.27,38.84l-.15.39C53.44,108.53,51.48,113.5,44.6,113.5Z" transform="translate(-25.71 -6.29)"/><path class="cls-3" d="M50.62,111.7l-.49-.11c-6-1.37-9.05-24.12-9.37-26.71l-.06-.5,1-.12.06.5c.86,6.84,4.07,24.83,8.6,25.86l.49.11Z" transform="translate(-25.71 -6.29)"/><path class="cls-3" d="M46.87,120.25l-.47-.18C41,118,38.49,95.1,38,90.54c-.12-1.19-.23-2.38-.34-3.56l0-.5,1-.09,0,.5c.1,1.17.21,2.36.33,3.55,1.33,13.3,4.24,27.34,7.73,28.7l.47.18Z" transform="translate(-25.71 -6.29)"/><path class="cls-4" d="M37.06,70.48s.09,2,.28,5" transform="translate(-25.71 -6.29)"/><path class="cls-3" d="M36.88,76l0-.5c-.19-3-.28-5-.28-5l0-.5,1,0,0,.5s.09,2,.28,5l0,.5Z" transform="translate(-25.71 -6.29)"/><path class="cls-3" d="M47.38,134.19l-.45-.21C36.8,129.41,35,91,34.94,89.32l0-.5,1,0,0,.5c0,.39,1.82,39.47,11.4,43.79l.45.21Z" transform="translate(-25.71 -6.29)"/><path class="cls-3" d="M47.22,124.68l-.17-1,.49-.09c.09,0,9.06-1.62,11.75-10.75l.14-.48,1,.28-.14.48c-2.87,9.75-12.44,11.44-12.54,11.46Z" transform="translate(-25.71 -6.29)"/><path class="cls-4" d="M53.62,98.65s2.11-2.55,3.28-8.16" transform="translate(-25.71 -6.29)"/><path class="cls-3" d="M53.69,99.36l-.77-.64.31-.38s2.05-2.55,3.19-8l.1-.49,1,.21-.11.49C56.2,96.26,54.09,98.86,54,99Z" transform="translate(-25.71 -6.29)"/><path class="cls-3" d="M48.61,132.22a3.39,3.39,0,0,1-.64-.06,4.06,4.06,0,0,1-2.65-1.75l-.26-.42.85-.52.26.42a3.17,3.17,0,0,0,2,1.29,4.79,4.79,0,0,0,3.68-1.41c3.57-3,9-7.41,15.47-36.49.68-3,1.47-5.92,2.23-8.71s1.51-5.56,2-8.11l.1-.49,1,.21-.1.49C72,79.24,71.28,82,70.49,84.84S69,90.49,68.28,93.5c-6.09,27.14-11.15,33.18-15.81,37A6.26,6.26,0,0,1,48.61,132.22Z" transform="translate(-25.71 -6.29)"/><path class="cls-3" d="M48.89,118.31a2.19,2.19,0,0,1-.47,0l-.49-.1.2-1,.49.1c.13,0,7.14,1,12.92-18.78,6-20.42,10-38.46,10-38.64l.11-.49,1,.22-.1.49c0,.18-4.08,18.25-10.06,38.7C57.19,117,50.7,118.31,48.89,118.31Z" transform="translate(-25.71 -6.29)"/><path class="cls-3" d="M39.29,212.28l-.07-.5c-.1-.58-2.23-14.34-1.52-21.91.21-2.21.54-4.53.91-7.22a192.11,192.11,0,0,0,2.18-25.85C41,141,38,115.23,38,115l-.06-.49,1-.12.06.5c0,.26,3,26.07,2.81,42a191.5,191.5,0,0,1-2.19,26c-.37,2.68-.69,5-.9,7.19-.71,7.44,1.48,21.52,1.5,21.66l.08.49Z" transform="translate(-25.71 -6.29)"/><path class="cls-3" d="M36.17,169.94l-1-.1,0-.5c.12-1.23.26-2.47.4-3.75a144.23,144.23,0,0,0,1.12-16.73,111.7,111.7,0,0,0-2.25-23.65l-.11-.49,1-.23.11.48a112,112,0,0,1,2.28,23.89,143.38,143.38,0,0,1-1.13,16.84c-.14,1.28-.28,2.52-.4,3.74Z" transform="translate(-25.71 -6.29)"/><path class="cls-3" d="M35.47,212.17l-1,0,0-.5c0-.07.17-6.35.45-13,.06-1.31.09-2.85.12-4.54.13-7.18.31-17,2.66-25.11,2.18-7.5,1.16-20,.26-31-.29-3.47-.55-6.75-.7-9.66-.62-12,0-17.09,0-17.3l.06-.5,1,.12-.06.49s-.6,5.25,0,17.14c.14,2.9.41,6.17.7,9.63.9,11.08,1.93,23.64-.3,31.32-2.32,8-2.49,17.73-2.62,24.84,0,1.71-.06,3.26-.12,4.57-.28,6.67-.45,13-.45,13Z" transform="translate(-25.71 -6.29)"/><path class="cls-3" d="M42.73,212.09l-.09-.49a63.69,63.69,0,0,1-.75-12c.06-2.09.23-5.38.43-9.19.45-8.68,1.06-20.56,1.06-30.45,0-14.16-1.47-31.89-1.49-32.07l0-.5,1-.08,0,.5c0,.17,1.49,18,1.49,32.15,0,9.92-.61,21.81-1.06,30.5-.2,3.8-.37,7.09-.43,9.17a63.18,63.18,0,0,0,.74,11.78l.09.49Z" transform="translate(-25.71 -6.29)"/><path class="cls-3" d="M47.86,211.32l0-.5c0-.2-.53-20.17-1.21-31.84s-.55-42.06-.55-42.36v-.5h1v.5c0,.31-.13,30.64.55,42.3s1.21,31.67,1.21,31.87l0,.5Z" transform="translate(-25.71 -6.29)"/><path class="cls-3" d="M50.86,211.33l0-.5c0-.28-1.4-28.39-1.09-43.14s0-36.11,0-36.33v-.5h1v.5c0,.21.32,21.62,0,36.36s1.08,42.79,1.09,43.07l0,.5Z" transform="translate(-25.71 -6.29)"/><path class="cls-3" d="M53.2,211.39l0-.5s-.22-5,0-11.29c.17-4.21.12-11.6.07-20.95,0-4.59-.06-9.61-.07-14.89,0-15.72.92-35.73.93-35.93l0-.5,1,0,0,.5c0,.2-1,20.19-.93,35.88,0,5.27,0,10.3.07,14.89,0,9.36.1,16.75-.07,21-.25,6.24,0,11.16,0,11.21l0,.49Z" transform="translate(-25.71 -6.29)"/><path class="cls-3" d="M57.45,211.68l-1-.23.12-.49a91.78,91.78,0,0,0,1.81-19.07v-.5h1v.5a92.15,92.15,0,0,1-1.84,19.31Z" transform="translate(-25.71 -6.29)"/><path class="cls-3" d="M59.39,180.86h-1v-.5c0-3.27,0-6.83,0-10.6,0-5.28-.1-10.75,0-15.56.4-12.76-1.42-29.86-1.44-30l-.06-.5,1-.1.05.49c0,.17,1.85,17.34,1.45,30.17-.15,4.79-.1,10.25,0,15.52,0,3.77.07,7.34,0,10.62Z" transform="translate(-25.71 -6.29)"/><path class="cls-3" d="M60.74,144.9l-1-.09,0-.5c1.22-12.83,1.1-28.26,1.1-28.42v-.5h1v.5c0,.16.12,15.64-1.11,28.52Z" transform="translate(-25.71 -6.29)"/><path class="cls-3" d="M61.06,212.1v-.5c0-.28-.37-27.85.07-37.91.1-2.17.2-4.66.31-7.43.4-10.15,1-24.06,2.06-40.13l0-.5,1,.07,0,.5c-1.11,16-1.66,30-2.06,40.1-.11,2.77-.21,5.26-.31,7.44-.44,10-.07,37.57-.07,37.85v.5Z" transform="translate(-25.71 -6.29)"/><path class="cls-4" d="M63.93,108.39s.2,9.81.06,13.47" transform="translate(-25.71 -6.29)"/><path class="cls-3" d="M64.47,122.38l-1,0,0-.5c.14-3.6-.05-13.34-.06-13.44v-.5l1,0v.5c0,.1.2,9.87.06,13.5Z" transform="translate(-25.71 -6.29)"/><path class="cls-3" d="M66.86,212.54l-.08-.49c0-.15-2.3-14.91-1.71-24.69l0-.5,1,.06,0,.5c-.59,9.68,1.68,24.32,1.7,24.47l.08.49Z" transform="translate(-25.71 -6.29)"/><path class="cls-3" d="M66.08,179.6h-1v-.5c0-3.47,0-7.26,0-11.27,0-10.7-.07-24,.78-39.06,1.39-24.36.74-32.3.74-32.37l-.05-.5,1-.09,0,.5c0,.08.66,8.06-.73,32.52-.85,15-.81,28.31-.78,39,0,4,0,7.8,0,11.28Z" transform="translate(-25.71 -6.29)"/><path class="cls-3" d="M73.41,212.2l-.13-.48a59.63,59.63,0,0,1-1.41-8.21l-.05-.5,1-.1,0,.5a57.57,57.57,0,0,0,1.39,8.05l.13.49Z" transform="translate(-25.71 -6.29)"/><path class="cls-3" d="M70.69,182l0-.5c-.74-13.32-1.65-33-.85-50.19,1.25-26.7-1.49-41.79-1.52-41.94l-.09-.49,1-.18.09.49c0,.15,2.79,15.35,1.54,42.17-.8,17.13.11,36.79.85,50.08l0,.5Z" transform="translate(-25.71 -6.29)"/><path class="cls-3" d="M78.78,211.74l-.2-.46C73.33,199.37,73,174.69,73,173.65v-.5l1,0v.5c0,.26.37,25.52,5.54,37.25l.21.46Z" transform="translate(-25.71 -6.29)"/><path class="cls-3" d="M43.43,40.88a7,7,0,0,1-2.87-.56L40.29,40l-2.06-9.66-2.79,1-.66-.5a58.47,58.47,0,0,1,2.07-12l-.27-.1c-.23-.1-5-2.28-4.32-5.95A4.44,4.44,0,0,1,34.71,9.2c1.87-.82,4.52-.2,7.67,1.8a6,6,0,0,0,2.92.94l.5,0,0,1-.5,0a7.17,7.17,0,0,1-3.41-1.1c-2.81-1.78-5.2-2.4-6.72-1.73a3.49,3.49,0,0,0-1.88,2.82c-.52,2.9,3.68,4.83,3.72,4.85l.67.25.31.61a57.72,57.72,0,0,0-2.11,11.45l2.61-.9.65.37,2.13,10a7.33,7.33,0,0,0,4.86-.1c3.47-1.23,6.56-4.69,9.18-10.27l.22-.46.9.43-.21.45c-2.75,5.86-6.05,9.49-9.79,10.8A8.79,8.79,0,0,1,43.43,40.88Z" transform="translate(-25.71 -6.29)"/><path class="cls-4" d="M39.72,34.87a18,18,0,0,0,5-2" transform="translate(-25.71 -6.29)"/><path class="cls-3" d="M39.36,35.48l-.25-1,.49-.12a17.84,17.84,0,0,0,4.79-1.94l.4-.31.61.79-.39.31a18.67,18.67,0,0,1-5.17,2.12Z" transform="translate(-25.71 -6.29)"/><path class="cls-3" d="M40.85,25.19a3.28,3.28,0,0,1-2.2-.92l-.37-.34L39,23.2l.36.34a2.34,2.34,0,0,0,1.62.65A2.87,2.87,0,0,0,42.88,23l.32-.38.76.65-.32.38A3.8,3.8,0,0,1,41,25.19Z" transform="translate(-25.71 -6.29)"/><line class="cls-4" x1="35.54" y1="35.51" x2="35.7" y2="21.06"/><rect class="cls-3" x="53.61" y="34.07" width="15.45" height="1" transform="translate(0.45 89.28) rotate(-89.44)"/><path class="cls-3" d="M51.39,50.58l-1-.1,0-.5A47.47,47.47,0,0,0,50,37.25l.14-.48a24.17,24.17,0,0,0,5.13-7.63l.21-.45.91.41-.21.45A25.31,25.31,0,0,1,51,37.29a49.23,49.23,0,0,1,.42,12.79Z" transform="translate(-25.71 -6.29)"/><path class="cls-3" d="M43.26,22.65l3,.14a8.86,8.86,0,0,1-3.72,1.56Z" transform="translate(-25.71 -6.29)"/><path class="cls-3" d="M41.45,17.28A5.56,5.56,0,0,1,39.77,17a2.92,2.92,0,0,1-1.84-1.35l-.22-.45.9-.44.22.45a2,2,0,0,0,1.24.84,5.36,5.36,0,0,0,4.06-.51c4-2.25,6.62.39,6.64.42l.35.36L50.4,17l-.35-.36c-.1-.09-2.13-2.09-5.43-.24A6.54,6.54,0,0,1,41.45,17.28Z" transform="translate(-25.71 -6.29)"/><path class="cls-3" d="M54.6,29.58a5.71,5.71,0,0,1-1.23-.13,3.37,3.37,0,0,1-2.17-1.31L51,27.71l.85-.52.26.43a2.38,2.38,0,0,0,1.53.85,5,5,0,0,0,3.8-.76c3.8-2.59,6.63-.06,6.65,0l.37.34-.67.74-.37-.34c-.1-.09-2.29-2-5.42.13A6,6,0,0,1,54.6,29.58Z" transform="translate(-25.71 -6.29)"/><path class="cls-3" d="M46.08,19.13a3,3,0,0,1-.89-.13,1.84,1.84,0,0,1-1.27-1.21l-.14-.48,1-.28.14.48a.88.88,0,0,0,.62.54,3.34,3.34,0,0,0,2.94-.88,4.48,4.48,0,0,1,3.35-1.23,2.74,2.74,0,0,1,1.79,1l.29.41-.82.57-.29-.4a1.71,1.71,0,0,0-1.12-.62,3.55,3.55,0,0,0-2.57,1A4.82,4.82,0,0,1,46.08,19.13Z" transform="translate(-25.71 -6.29)"/><path class="cls-3" d="M55.36,15.23a5.66,5.66,0,0,0-.68,2.17.9.9,0,0,0,.14.37.73.73,0,0,0,1.26-.06.81.81,0,0,0,.11-.4A5.93,5.93,0,0,0,55.36,15.23Z" transform="translate(-25.71 -6.29)"/><path class="cls-3" d="M53.4,20.28a5.74,5.74,0,0,1,1-2.06.77.77,0,0,1,.35-.18.72.72,0,0,1,.89.89,1,1,0,0,1-.19.37A5.83,5.83,0,0,1,53.4,20.28Z" transform="translate(-25.71 -6.29)"/><path class="cls-3" d="M57.1,15.81A5.59,5.59,0,0,0,56.67,18a.9.9,0,0,0,.18.35.72.72,0,0,0,1.24-.2.87.87,0,0,0,.06-.41A5.8,5.8,0,0,0,57.1,15.81Z" transform="translate(-25.71 -6.29)"/><path class="cls-3" d="M55.78,21.06a5.72,5.72,0,0,1,.73-2.16.94.94,0,0,1,.33-.21.72.72,0,0,1,1,.78.82.82,0,0,1-.15.39A5.76,5.76,0,0,1,55.78,21.06Z" transform="translate(-25.71 -6.29)"/><path class="cls-3" d="M58.69,16.08a5.72,5.72,0,0,0-.09,2.27.74.74,0,0,0,.23.32A.72.72,0,0,0,60,18.29a1,1,0,0,0,0-.42A6,6,0,0,0,58.69,16.08Z" transform="translate(-25.71 -6.29)"/><path class="cls-3" d="M58.16,21.47a5.63,5.63,0,0,1,.41-2.24.68.68,0,0,1,.29-.26.71.71,0,0,1,1.08.62.83.83,0,0,1-.08.41A5.79,5.79,0,0,1,58.16,21.47Z" transform="translate(-25.71 -6.29)"/><path class="cls-3" d="M60.5,16a5.75,5.75,0,0,0,.22,2.27.79.79,0,0,0,.27.28A.72.72,0,0,0,62.13,18a.76.76,0,0,0-.06-.41A5.84,5.84,0,0,0,60.5,16Z" transform="translate(-25.71 -6.29)"/><path class="cls-3" d="M60.72,21.43a5.85,5.85,0,0,1,.09-2.28,1,1,0,0,1,.26-.3.72.72,0,0,1,1.16.48.79.79,0,0,1,0,.41A5.94,5.94,0,0,1,60.72,21.43Z" transform="translate(-25.71 -6.29)"/><path class="cls-3" d="M61.91,15.69a5.58,5.58,0,0,0,.69,2.16.74.74,0,0,0,.33.22.72.72,0,0,0,1-.76.9.9,0,0,0-.14-.4A5.83,5.83,0,0,0,61.91,15.69Z" transform="translate(-25.71 -6.29)"/><path class="cls-3" d="M63.27,20.93a5.83,5.83,0,0,1-.4-2.24.81.81,0,0,1,.19-.35.72.72,0,0,1,1.23.22.69.69,0,0,1,.06.41A5.77,5.77,0,0,1,63.27,20.93Z" transform="translate(-25.71 -6.29)"/><path class="cls-3" d="M51.73,16.5a5.79,5.79,0,0,0,1.63,1.59.8.8,0,0,0,.39,0A.72.72,0,0,0,54.27,17,.84.84,0,0,0,54,16.7,5.82,5.82,0,0,0,51.73,16.5Z" transform="translate(-25.71 -6.29)"/><path class="cls-3" d="M59.51,19.39a12.32,12.32,0,0,1-5.39-1.26l-.44-.23.47-.89.44.24s5.22,2.7,10-.33l.43-.26.53.84-.42.27A10.45,10.45,0,0,1,59.51,19.39Z" transform="translate(-25.71 -6.29)"/><path class="cls-3" d="M79.19,92.23c-4.68,0-28.29-18.44-31-20.57-.11-.07-3.82-2.45-6.06-8.34a14.83,14.83,0,0,0-3.33-5.6A2.44,2.44,0,0,1,38,56.46L37.48,56a1.85,1.85,0,0,1-.36-2.41l.27-.07a1.91,1.91,0,0,1,.56-1l.42-.07a.89.89,0,0,1,.28-.54,1.15,1.15,0,0,1,1.22-.14l.18.06c1.59.5,5.3,1.68,8.37,8.09l.31.63c2.81,5.88,2.86,6,4.57,7.08,1.46,1,14.06,6,18.89,7.84l.37-19.32a14.66,14.66,0,0,1,2-7.18l.8-.08c1.8,2,2.48,6,3.42,11.48.41,2.42.88,5.15,1.51,8.05.67,3.06,3.85,18.54.81,22.72a2.42,2.42,0,0,1-1.77,1.08ZM37.84,54.36a1,1,0,0,0,.32.89l.66.61.16.39c0,.18.12.34.54.78A15.6,15.6,0,0,1,43.06,63a16.69,16.69,0,0,0,5.71,7.88C59.43,79.22,76.3,91.47,79.25,91.23a1.44,1.44,0,0,0,1.06-.67c2-2.79,1-13-1-21.93-.64-2.92-1.11-5.66-1.53-8.09-.79-4.62-1.43-8.36-2.74-10.4a13.93,13.93,0,0,0-1.51,6l-.39,20-.68.45c-5.41-2.11-18.17-7.15-19.74-8.19-2-1.3-2.07-1.54-4.93-7.49l-.3-.63c-2.89-6-6.31-7.1-7.77-7.57l-.19-.06-.21,0a1.77,1.77,0,0,0,.06.4l-.72.56-.24-.12a.59.59,0,0,0-.06.45Z" transform="translate(-25.71 -6.29)"/><path class="cls-3" d="M44.56,58.39l-.29-.4a14.77,14.77,0,0,0-5.15-4.1c-.48-.26-.67-.35-.69-.65l0-.5,1-.09,0,.26.18.09a15.61,15.61,0,0,1,5.49,4.4l.3.4Z" transform="translate(-25.71 -6.29)"/><path class="cls-3" d="M43.39,59.28l-.28-.41c-1.75-2.5-5.4-4.33-5.43-4.35l-.45-.22.44-.89.45.22a17.75,17.75,0,0,1,5.81,4.67l.28.41Z" transform="translate(-25.71 -6.29)"/><path class="cls-3" d="M42.08,59.89l-.29-.41c-2.12-3-3.11-2.79-3.11-2.79l-.44.25-.44-.89.43-.25c.36-.21,1.73-.6,4.37,3.1l.3.4Z" transform="translate(-25.71 -6.29)"/></g></g></g></svg>