<svg xmlns="http://www.w3.org/2000/svg" viewBox="0 0 70.86 114.28"><path  d="M42.56,63.87l-.44.22a7.4,7.4,0,0,1-4.14.83c-3.94-.41-6.47-3.28-8.06-6.35l-1.22-.13c1.68,3.52,4.5,7,9.18,7.47a7.5,7.5,0,0,0,.82,0,8.37,8.37,0,0,0,3.87-1l.45-.22Zm3.37-7.28a12,12,0,0,1-9.48,4,3.55,3.55,0,0,1-2.89-1.83H32.38c1,1.66,2.27,2.84,4.07,2.84,5.77,0,9.2-2.68,11.22-5.64C47.1,56.16,46.52,56.39,45.93,56.59ZM50,54.8l-.09.18-.23.44.89.46.23-.45c.27-.53.53-1,.76-1.52C51.05,54.23,50.53,54.52,50,54.8Zm2.23,8.64-.43,1.45-.67,2.3c.41-.2.82-.41,1.22-.63.14-.46.27-.92.41-1.39l.43-1.45Zm2.14-5-.27-.07a1.91,1.91,0,0,0-.56-1l-.42-.07a.89.89,0,0,0-.28-.54,1.15,1.15,0,0,0-1.22-.14l-.18.06c-1.59.5-5.3,1.68-8.37,8.09l-.3.63c-1.31,2.73-2,4.21-2.58,5.12.42-.05.84-.12,1.26-.19.53-1,1.2-2.37,2.22-4.5l.3-.63c2.89-6,6.31-7.1,7.77-7.57l.19-.06a1,1,0,0,1,.18,0l0,.23-.18.09a15.61,15.61,0,0,0-5.49,4.4l-.3.4.81.59.3-.4a14.67,14.67,0,0,1,5.14-4.1,4,4,0,0,0,.47-.27l.2-.11a.66.66,0,0,1,.08.25,17.27,17.27,0,0,0-5.56,4.53l-.28.42.82.57.28-.41a16.64,16.64,0,0,1,5.28-4.27,1.17,1.17,0,0,1-.32.65l-.47.43c-.64-.06-1.93.34-4,3.22l-.3.4.82.59.29-.41A9.73,9.73,0,0,1,52,61.9a15.6,15.6,0,0,0-3.54,5.93l-.27.67c.43-.17.86-.34,1.29-.53a14.58,14.58,0,0,1,3.24-5.38,2.44,2.44,0,0,0,.81-1.26l.51-.47A1.85,1.85,0,0,0,54.37,58.45Zm.68,5.8-.11.49s0,.12-.06.31l.92-.63Zm-9.12-7.66a12,12,0,0,1-9.48,4,3.55,3.55,0,0,1-2.89-1.83H32.38c1,1.66,2.27,2.84,4.07,2.84,5.77,0,9.2-2.68,11.22-5.64C47.1,56.16,46.52,56.39,45.93,56.59Zm-3.37,7.28-.44.22a7.4,7.4,0,0,1-4.14.83c-3.94-.41-6.47-3.28-8.06-6.35l-1.22-.13c1.68,3.52,4.5,7,9.18,7.47a7.5,7.5,0,0,0,.82,0,8.37,8.37,0,0,0,3.87-1l.45-.22ZM50,54.8l-.09.18-.23.44.89.46.23-.45c.27-.53.53-1,.76-1.52C51.05,54.23,50.53,54.52,50,54.8Zm-7.44,9.07-.44.22a7.4,7.4,0,0,1-4.14.83c-3.94-.41-6.47-3.28-8.06-6.35l-1.22-.13c1.68,3.52,4.5,7,9.18,7.47a7.5,7.5,0,0,0,.82,0,8.37,8.37,0,0,0,3.87-1l.45-.22Zm3.37-7.28a12,12,0,0,1-9.48,4,3.55,3.55,0,0,1-2.89-1.83H32.38c1,1.66,2.27,2.84,4.07,2.84,5.77,0,9.2-2.68,11.22-5.64C47.1,56.16,46.52,56.39,45.93,56.59ZM50,54.8l-.09.18-.23.44.89.46.23-.45c.27-.53.53-1,.76-1.52C51.05,54.23,50.53,54.52,50,54.8Zm-7.44,9.07-.44.22a7.4,7.4,0,0,1-4.14.83c-3.94-.41-6.47-3.28-8.06-6.35l-1.22-.13c1.68,3.52,4.5,7,9.18,7.47a7.5,7.5,0,0,0,.82,0,8.37,8.37,0,0,0,3.87-1l.45-.22Zm3.37-7.28a12,12,0,0,1-9.48,4,3.55,3.55,0,0,1-2.89-1.83H32.38c1,1.66,2.27,2.84,4.07,2.84,5.77,0,9.2-2.68,11.22-5.64C47.1,56.16,46.52,56.39,45.93,56.59ZM50,54.8l-.09.18-.23.44.89.46.23-.45c.27-.53.53-1,.76-1.52C51.05,54.23,50.53,54.52,50,54.8Zm-7.44,9.07-.44.22a7.4,7.4,0,0,1-4.14.83c-3.94-.41-6.47-3.28-8.06-6.35l-1.22-.13c1.68,3.52,4.5,7,9.18,7.47a7.5,7.5,0,0,0,.82,0,8.37,8.37,0,0,0,3.87-1l.45-.22Zm3.37-7.28a12,12,0,0,1-9.48,4,3.55,3.55,0,0,1-2.89-1.83H32.38c1,1.66,2.27,2.84,4.07,2.84,5.77,0,9.2-2.68,11.22-5.64C47.1,56.16,46.52,56.39,45.93,56.59ZM50,54.8l-.09.18-.23.44.89.46.23-.45c.27-.53.53-1,.76-1.52C51.05,54.23,50.53,54.52,50,54.8Zm-7.44,9.07-.44.22a7.4,7.4,0,0,1-4.14.83c-3.94-.41-6.47-3.28-8.06-6.35l-1.22-.13c1.68,3.52,4.5,7,9.18,7.47a7.5,7.5,0,0,0,.82,0,8.37,8.37,0,0,0,3.87-1l.45-.22Zm3.37-7.28a12,12,0,0,1-9.48,4,3.55,3.55,0,0,1-2.89-1.83H32.38c1,1.66,2.27,2.84,4.07,2.84,5.77,0,9.2-2.68,11.22-5.64C47.1,56.16,46.52,56.39,45.93,56.59ZM50,54.8l-.09.18-.23.44.89.46.23-.45c.27-.53.53-1,.76-1.52C51.05,54.23,50.53,54.52,50,54.8Zm-7.44,9.07-.44.22a7.4,7.4,0,0,1-4.14.83c-3.94-.41-6.47-3.28-8.06-6.35l-1.22-.13c1.68,3.52,4.5,7,9.18,7.47a7.5,7.5,0,0,0,.82,0,8.37,8.37,0,0,0,3.87-1l.45-.22Zm3.37-7.28a12,12,0,0,1-9.48,4,3.55,3.55,0,0,1-2.89-1.83H32.38c1,1.66,2.27,2.84,4.07,2.84,5.77,0,9.2-2.68,11.22-5.64C47.1,56.16,46.52,56.39,45.93,56.59ZM50,54.8l-.09.18-.23.44.89.46.23-.45c.27-.53.53-1,.76-1.52C51.05,54.23,50.53,54.52,50,54.8ZM35.43,0A35.43,35.43,0,0,0,13.1,62.93l.88.7c.63-3.56,1.23-6.46,2.24-8.26a27.5,27.5,0,0,1,.43,9.81,2.51,2.51,0,0,1,0,.27c.3.19.61.38.93.56,0-.23.07-.46.1-.69a27.37,27.37,0,0,0,.25-4.82c0,.18,0,.36,0,.54l.1,5.25c.33.19.67.38,1,.55L18.93,61a10.83,10.83,0,0,0-.1-1.39,47,47,0,0,1,1.1,5c.15.89.33,1.87.55,2.93.37.18.74.34,1.11.5-.27-1.32-.5-2.53-.68-3.6-1-5.7-2.13-8.41-3-9.69a10.19,10.19,0,0,1-1.56-1.31,6.44,6.44,0,0,1-1.14-8.17c5.17-9.65-3.53-7.65,1.78-21a14.35,14.35,0,0,1,.94-1.93c.16-.3.34-.59.52-.87-1.06-.85-2.11-2.12-1.83-3.65A3.5,3.5,0,0,1,18.48,15c1.07-.47,2.57-.3,4.35.46v0a9.69,9.69,0,0,1,.59-.81c.25-.31.52-.63.82-.94,4-4.23,10.78-7.26,17.26-3.36,3.55,2.13,5.56,5.92,6.47,10.22.08.39.16.76.24,1.1s.16.7.24,1c.91,3.42,2.27,5.22,8.61,11.69C60.66,38,61.22,43.71,58.6,47.4a21.5,21.5,0,0,1-2.29,2.73c-.23.25-.48.49-.74.74a3,3,0,0,1,.11.32C55.51,51.62,55,53,54,55l-.21.46.91.42.21-.45c.9-1.94,1.46-3.28,1.66-3.79a2,2,0,0,1,1.29.11A1.92,1.92,0,0,1,58.75,53a4,4,0,0,1,.11,1l-.12-.16-.8.08a14.66,14.66,0,0,0-2,7.18l-.07,3.36q.51-.36,1-.75L56.92,61a13.93,13.93,0,0,1,1.51-6c.13.21.25.44.37.68-.11,1.79-.38,4.26-.73,7,.38-.32.76-.65,1.13-1,.17-1.38.32-2.67.43-3.84.25.84.47,1.78.67,2.8.29-.27.57-.56.84-.86A35.42,35.42,0,0,0,35.43,0ZM49.91,55l-.23.44.89.46.23-.45c.27-.53.53-1,.76-1.52-.51.32-1,.61-1.56.89ZM36.45,60.55a3.55,3.55,0,0,1-2.89-1.83H32.38c1,1.66,2.27,2.84,4.07,2.84,5.77,0,9.2-2.68,11.22-5.64-.57.25-1.15.48-1.74.68A12,12,0,0,1,36.45,60.55Zm5.67,3.54a7.4,7.4,0,0,1-4.14.83c-3.94-.41-6.47-3.28-8.06-6.35l-1.22-.13c1.68,3.52,4.5,7,9.18,7.47a7.5,7.5,0,0,0,.82,0,8.37,8.37,0,0,0,3.87-1l.45-.22-.46-.89ZM50,54.8l-.09.18-.23.44.89.46.23-.45c.27-.53.53-1,.76-1.52C51.05,54.23,50.53,54.52,50,54.8Zm-4.07,1.79a12,12,0,0,1-9.48,4,3.55,3.55,0,0,1-2.89-1.83H32.38c1,1.66,2.27,2.84,4.07,2.84,5.77,0,9.2-2.68,11.22-5.64C47.1,56.16,46.52,56.39,45.93,56.59Zm-3.37,7.28-.44.22a7.4,7.4,0,0,1-4.14.83c-3.94-.41-6.47-3.28-8.06-6.35l-1.22-.13c1.68,3.52,4.5,7,9.18,7.47a7.5,7.5,0,0,0,.82,0,8.37,8.37,0,0,0,3.87-1l.45-.22ZM50,54.8l-.09.18-.23.44.89.46.23-.45c.27-.53.53-1,.76-1.52C51.05,54.23,50.53,54.52,50,54.8Zm-4.07,1.79a12,12,0,0,1-9.48,4,3.55,3.55,0,0,1-2.89-1.83H32.38c1,1.66,2.27,2.84,4.07,2.84,5.77,0,9.2-2.68,11.22-5.64C47.1,56.16,46.52,56.39,45.93,56.59Zm-3.37,7.28-.44.22a7.4,7.4,0,0,1-4.14.83c-3.94-.41-6.47-3.28-8.06-6.35l-1.22-.13c1.68,3.52,4.5,7,9.18,7.47a7.5,7.5,0,0,0,.82,0,8.37,8.37,0,0,0,3.87-1l.45-.22ZM50,54.8l-.09.18-.23.44.89.46.23-.45c.27-.53.53-1,.76-1.52C51.05,54.23,50.53,54.52,50,54.8Zm-4.07,1.79a12,12,0,0,1-9.48,4,3.55,3.55,0,0,1-2.89-1.83H32.38c1,1.66,2.27,2.84,4.07,2.84,5.77,0,9.2-2.68,11.22-5.64C47.1,56.16,46.52,56.39,45.93,56.59Zm-3.37,7.28-.44.22a7.4,7.4,0,0,1-4.14.83c-3.94-.41-6.47-3.28-8.06-6.35l-1.22-.13c1.68,3.52,4.5,7,9.18,7.47a7.5,7.5,0,0,0,.82,0,8.37,8.37,0,0,0,3.87-1l.45-.22Zm-4,5.95h-.83A9.4,9.4,0,0,1,33.83,69c-.44-.87-1-2-1.74-3.59l-.31-.63a15.82,15.82,0,0,0-5.4-6.72,26.1,26.1,0,0,1-5.46-1.64l.32,1a1.88,1.88,0,0,0-.49.9l-.27.07a1.85,1.85,0,0,0,.36,2.41l.51.47a2.44,2.44,0,0,0,.81,1.26,14.83,14.83,0,0,1,3.33,5.6c.13.34.26.67.4,1l-.21,0,.07.29a32,32,0,0,0,3.22.76,25.27,25.27,0,0,1-4.14-6.36l.32.44.29.41.82-.59-.3-.4a11.56,11.56,0,0,0-2.32-2.56c0-.09-.07-.19-.11-.28a12.61,12.61,0,0,1,2.94,2.81l.28.41.3-.21a15.23,15.23,0,0,0,6.06,5.86c.2.39.38.72.56,1,.4,0,.8,0,1.2,0h.56c.55,0,1.1,0,1.64,0s1,0,1.48-.09ZM22,60.55l-.46-.43a1.1,1.1,0,0,1-.33-.65c.17.09.48.26.88.5l.21.59A1,1,0,0,0,22,60.55Zm.95-1.23c-.05-.13-.1-.27-.14-.4a16.84,16.84,0,0,1,2.45,1.56c.12.28.26.57.39.85A19.91,19.91,0,0,0,22.93,59.32Zm4.74,3.6.25.34.81-.59-.3-.4a13,13,0,0,0-2.3-2.37c-.16-.37-.32-.73-.46-1.1a14.79,14.79,0,0,1,5.21,6.42l.3.63c.43.89.79,1.64,1.11,2.29A16,16,0,0,1,27.67,62.92Zm-4.23,2.42-.11-.48-1,.22.11.48s.28,1.23.75,3.14l1.14.39C23.78,66.83,23.45,65.37,23.44,65.34ZM50,54.8l-.09.18-.23.44.89.46.23-.45c.27-.53.53-1,.76-1.52C51.05,54.23,50.53,54.52,50,54.8Zm-4.07,1.79a12,12,0,0,1-9.48,4,3.55,3.55,0,0,1-2.89-1.83H32.38c1,1.66,2.27,2.84,4.07,2.84,5.77,0,9.2-2.68,11.22-5.64C47.1,56.16,46.52,56.39,45.93,56.59Zm-3.37,7.28-.44.22a7.4,7.4,0,0,1-4.14.83c-3.94-.41-6.47-3.28-8.06-6.35l-1.22-.13c1.68,3.52,4.5,7,9.18,7.47a7.5,7.5,0,0,0,.82,0,8.37,8.37,0,0,0,3.87-1l.45-.22ZM50,54.8l-.09.18-.23.44.89.46.23-.45c.27-.53.53-1,.76-1.52C51.05,54.23,50.53,54.52,50,54.8Zm-7.44,9.07-.44.22a7.4,7.4,0,0,1-4.14.83c-3.94-.41-6.47-3.28-8.06-6.35l-1.22-.13c1.68,3.52,4.5,7,9.18,7.47a7.5,7.5,0,0,0,.82,0,8.37,8.37,0,0,0,3.87-1l.45-.22Zm3.37-7.28a12,12,0,0,1-9.48,4,3.55,3.55,0,0,1-2.89-1.83H32.38c1,1.66,2.27,2.84,4.07,2.84,5.77,0,9.2-2.68,11.22-5.64C47.1,56.16,46.52,56.39,45.93,56.59ZM50,54.8l-.09.18-.23.44.89.46.23-.45c.27-.53.53-1,.76-1.52C51.05,54.23,50.53,54.52,50,54.8Zm-7.44,9.07-.44.22a7.4,7.4,0,0,1-4.14.83c-3.94-.41-6.47-3.28-8.06-6.35l-1.22-.13c1.68,3.52,4.5,7,9.18,7.47a7.5,7.5,0,0,0,.82,0,8.37,8.37,0,0,0,3.87-1l.45-.22Zm3.37-7.28a12,12,0,0,1-9.48,4,3.55,3.55,0,0,1-2.89-1.83H32.38c1,1.66,2.27,2.84,4.07,2.84,5.77,0,9.2-2.68,11.22-5.64C47.1,56.16,46.52,56.39,45.93,56.59Zm0,0a12,12,0,0,1-9.48,4,3.55,3.55,0,0,1-2.89-1.83H32.38c1,1.66,2.27,2.84,4.07,2.84,5.77,0,9.2-2.68,11.22-5.64C47.1,56.16,46.52,56.39,45.93,56.59Zm-3.37,7.28-.44.22a7.4,7.4,0,0,1-4.14.83c-3.94-.41-6.47-3.28-8.06-6.35l-1.22-.13c1.68,3.52,4.5,7,9.18,7.47a7.5,7.5,0,0,0,.82,0,8.37,8.37,0,0,0,3.87-1l.45-.22ZM50,54.8l-.09.18-.23.44.89.46.23-.45c.27-.53.53-1,.76-1.52C51.05,54.23,50.53,54.52,50,54.8Z"/><path class="cls-1" d="M63.67,73.29c-.63-2.9-1.1-5.63-1.51-8.05-.36-2-.67-3.86-1-5.45a20.23,20.23,0,0,0-1.34-4.33,10.43,10.43,0,0,0-.09-2.8,2.86,2.86,0,0,0-1.4-1.82,3,3,0,0,0-1.75-.22,2.51,2.51,0,0,0-.25-.49,2.44,2.44,0,0,0-.88-.87A3.37,3.37,0,0,0,53.26,49c-.4-.64-1.59-1.16-3.63-1.59-3.34-.72-4.15-1.58-4.2-1.65l-.27-.4,0,0,.14-12.79a3.62,3.62,0,0,1,1.46.74l.37.33.67-.73-.37-.34s-2.85-2.55-6.65,0a5,5,0,0,1-3.8.76,2.43,2.43,0,0,1-1.53-.85l-.26-.43-.85.52.25.43a3.34,3.34,0,0,0,2.17,1.31,5.71,5.71,0,0,0,1.23.13,3.73,3.73,0,0,0,.46,0,31,31,0,0,1-2.9,4.92l-.21.26c-.17.23-.35.44-.53.65-.41.49-.84,1-1.29,1.4h0a11.36,11.36,0,0,1-4,2.63,7.33,7.33,0,0,1-4.86.1l-.92-4.28a16.64,16.64,0,0,0,4.71-2l.39-.31L28.15,37l-.4.31a15.37,15.37,0,0,1-4.3,1.8l-1-4.69-.65-.37-2.61.9A57.72,57.72,0,0,1,21.3,23.51L21,22.9l-.67-.25a9.76,9.76,0,0,1-1.89-1.2c-1.06-.85-2.11-2.12-1.83-3.65A3.5,3.5,0,0,1,18.48,15c1.07-.47,2.57-.3,4.35.46a16.89,16.89,0,0,1,2.37,1.27,7.07,7.07,0,0,0,3.41,1.09l.5,0,.05-1-.49,0a6,6,0,0,1-2.93-.94,17.85,17.85,0,0,0-2.31-1.26c-2.14-1-4-1.15-5.36-.54a4.46,4.46,0,0,0-2.45,3.55c-.37,2.08,1,3.69,2.29,4.7a9.83,9.83,0,0,0,2,1.25l.27.1a58.47,58.47,0,0,0-2.07,12l.66.5,2.79-1,.9,4.19h0l.09.34,1.09,5.13.27.34a7,7,0,0,0,2.87.56,8.79,8.79,0,0,0,2.95-.52A12,12,0,0,0,33.5,43,46.78,46.78,0,0,1,34,47.68C32.64,48.2,30.58,48.84,30,49a3.49,3.49,0,0,0-3.17.74,2,2,0,0,0-.82-.3,4.55,4.55,0,0,0-3.28,1.28l-.27.05-.1,0a4.92,4.92,0,0,0-2.1,1,3.91,3.91,0,0,0-2.6.23,3.13,3.13,0,0,0-1.35,1.39.22.22,0,0,0,0,.08l-.17,0-.12.43c-1.45,1.78-2.15,4.84-2.89,9-.14.74-.27,1.51-.41,2.31-.41,2.42-.88,5.15-1.51,8.05-.67,3.06-3.85,18.54-.81,22.72a2.42,2.42,0,0,0,1.77,1.08h.16c.91,0,2.55-.71,4.61-1.86.13,2.3.44,8.47.68,15.52l1,.38c-.26-7.8-.62-14.6-.72-16.45l.42-.25c.08,1.52.47,8.85,1.64,17.16.35.13.71.24,1.07.35-1.32-9.34-1.71-17.62-1.72-17.8v-.31c.6-.36,1.21-.75,1.85-1.16.08.9.17,1.81.26,2.73a153.87,153.87,0,0,0,2.71,17.39l1.07.25a147.93,147.93,0,0,1-2.79-17.74c-.11-1.09-.21-2.17-.3-3.25.7-.46,1.42-1,2.14-1.44.54,4,2.61,17.6,6.35,23.33l1.28.13c-3.48-4.45-5.92-18-6.7-24.09L26,89.4c1.95,6.37,4.73,14.12,7.26,16.43l.37.33.67-.74-.37-.33c-1.88-1.72-4.39-7.5-7.07-16.3,1.3-.91,2.61-1.85,3.89-2.78,1.89,4.81,3.63,7.58,5.26,8.4a1.85,1.85,0,0,1-1.29.44l-.47-.14-.27,1,.48.13a1.52,1.52,0,0,0,.43,0,3.36,3.36,0,0,0,2.36-1.18h.2v-.22a15.9,15.9,0,0,0,3-6.17c.44-1.43.85-2.77,1.24-4l3.52,2.57c-2,6.55-3.89,12.16-5.7,16.75l-.15.39c-1.81,4.6-3.15,8-4.89,10.23.41,0,.81,0,1.22,0,1.62-2.35,2.93-5.68,4.6-9.9l.15-.39c1.81-4.6,3.63-10,5.63-16.51.9.64,1.79,1.28,2.69,1.9-1.18,4.39-2.49,9.13-3.92,14a58.36,58.36,0,0,1-4.16,10.75l1.19-.11a61.71,61.71,0,0,0,3.93-10.36c1.39-4.75,2.68-9.37,3.83-13.68.87.61,1.74,1.19,2.58,1.75-.18.66-.36,1.33-.53,2l-.18,0,.07.39c-.33,1.3-.66,2.63-1,4-.2.89-.39,1.75-.59,2.6h-.14l0,.41c-1,4.47-2.08,8.3-3.06,11.6h-.13v.39s0,.09,0,.14c.38-.07.75-.15,1.12-.24.73-2.44,1.48-5.17,2.24-8.21,0,1.78,0,4.29,0,7.68l1-.28c.12-7.34-.07-10.49-.11-11,.22-.94.44-1.89.66-2.88.12-.55.26-1.06.39-1.6.37,2.76.92,7.76,1.24,14.8l1-.34a149,149,0,0,0-1.59-17c.16-.64.33-1.26.49-1.88.59.38,1.16.75,1.72,1.09.14,2.66.33,5.53.54,8.54.19,2.84.39,5.73.56,8.63l1-.4c-.16-2.79-.35-5.57-.54-8.3s-.37-5.37-.51-7.83c3,1.84,5.46,3,6.65,3h.16A2.42,2.42,0,0,0,64.48,96C67.52,91.83,64.34,76.35,63.67,73.29ZM34,48.73a46.63,46.63,0,0,1-.2,6.12l0,.5,1,.1,0-.5A47.6,47.6,0,0,0,35,48.33l.27-.11-.3-.7a44.72,44.72,0,0,0-.58-5.36c.36-.36.71-.74,1.06-1.15.23-.26.45-.53.66-.8l.16-.21a27.91,27.91,0,0,0,3.27-5.58h0l.1-.21a5.94,5.94,0,0,0,1.67-.79,5.1,5.1,0,0,1,3-1l-.16,14.75h1v-.41a11.75,11.75,0,0,0,4.3,1.58h.07a16.08,16.08,0,0,1-3.56,8.24,12,12,0,0,1-9.48,4,3.55,3.55,0,0,1-2.89-1.83c-1.38-2-2.14-5.36-2.72-7.86-.08-.34-.15-.67-.23-1C31.35,49.64,32.84,49.17,34,48.73Zm-8.15,1.7a1,1,0,0,1,.54.22,27.83,27.83,0,0,0,2.31,7.79c1.68,3.52,4.5,7,9.18,7.47a7.5,7.5,0,0,0,.82,0,8.37,8.37,0,0,0,3.87-1l.45-.22-.46-.89-.44.22a7.4,7.4,0,0,1-4.14.83c-3.94-.41-6.47-3.28-8.06-6.35a26.94,26.94,0,0,1-2.52-8,2.52,2.52,0,0,1,2.2-.68c.09.36.17.74.27,1.15a29.62,29.62,0,0,0,2.51,7.62c1,1.66,2.27,2.84,4.07,2.84,5.77,0,9.2-2.68,11.22-5.64a18.2,18.2,0,0,0,2.79-7.32c1.46.4,1.85.75,1.94.87A53.24,53.24,0,0,1,50,54.8l-.09.18-.23.44.89.46.23-.45c.27-.53.53-1,.76-1.52C52.49,52,53.07,50.5,53.28,50a2.51,2.51,0,0,1,1.66.17,1.54,1.54,0,0,1,.63.74,3,3,0,0,1,.11.32C55.51,51.62,55,53,54,55l-.21.46.91.42.21-.45c.9-1.94,1.46-3.28,1.66-3.79a2,2,0,0,1,1.29.11A1.92,1.92,0,0,1,58.75,53a4,4,0,0,1,.11,1l-.12-.16-.8.08a14.66,14.66,0,0,0-2,7.18l-.07,3.36v.05H55.8l-.75-.17-.11.49s0,.12-.06.31c-.29,1.27-1.47,6.42-3.31,13.72l-2.5-1c1-3.5,2.12-7.22,3.28-11.22.14-.46.27-.92.41-1.39l.43-1.45-1-.28-.43,1.45-.67,2.3c-1.05,3.58-2,7-3,10.21L44.53,76c.11-.29.18-.5.22-.62a19.17,19.17,0,0,0,4.61-7.14l.09-.22a14.58,14.58,0,0,1,3.24-5.38,2.44,2.44,0,0,0,.81-1.26l.51-.47a1.85,1.85,0,0,0,.36-2.41l-.27-.07a1.91,1.91,0,0,0-.56-1l-.42-.07a.89.89,0,0,0-.28-.54,1.15,1.15,0,0,0-1.22-.14l-.18.06c-1.59.5-5.3,1.68-8.37,8.09l-.3.63c-1.31,2.73-2,4.21-2.58,5.12a5.21,5.21,0,0,1-2,2,7.21,7.21,0,0,1-.76.41,6.64,6.64,0,0,1-.77-.41,5.07,5.07,0,0,1-1.79-1.65,4.81,4.81,0,0,1-.3-.47,10,10,0,0,0,2.5.44l.61,0h.87v-.09l0-.91h-.83A9.4,9.4,0,0,1,33.83,69c-.44-.87-1-2-1.74-3.59l-.31-.63a15.82,15.82,0,0,0-5.4-6.72,11.05,11.05,0,0,0-1.25-.71,41.29,41.29,0,0,1-1.63-5.94A3.52,3.52,0,0,1,25.85,50.43Zm31,13.2L56.92,61a13.93,13.93,0,0,1,1.51-6c.13.21.25.44.37.68-.11,1.79-.38,4.26-.73,7-.38,2.93-.86,6.17-1.36,9.2ZM26,63.77a11.56,11.56,0,0,0-2.32-2.56c0-.09-.07-.19-.11-.28a12.61,12.61,0,0,1,2.94,2.81l.28.41.3-.21a15.23,15.23,0,0,0,6.06,5.86c.2.39.38.72.56,1a6.06,6.06,0,0,0,2.44,2.52l.17.11-.81.36A9.91,9.91,0,0,1,29,70.27a25.27,25.27,0,0,1-4.14-6.36l.32.44.29.41.82-.59Zm-3.68-3.21a1,1,0,0,0-.3,0l-.46-.43a1.1,1.1,0,0,1-.33-.65c.17.09.48.26.88.5Zm6.15,1.71a13,13,0,0,0-2.3-2.37c-.16-.37-.32-.73-.46-1.1a14.79,14.79,0,0,1,5.21,6.42l.3.63c.43.89.79,1.64,1.11,2.29a16,16,0,0,1-4.62-5.22l.25.34.81-.59Zm-3.19-1.79c.12.28.26.57.39.85a19.91,19.91,0,0,0-2.7-2c-.05-.13-.1-.27-.14-.4A16.84,16.84,0,0,1,25.24,60.48Zm2.2,9.59a12.46,12.46,0,0,0,6.34,4.45l-2.09.87A16.84,16.84,0,0,1,27.44,70.07Zm3.19,5.75-2,.79c-.51-1.75-.94-3.34-1.26-4.58A17,17,0,0,0,30.63,75.82Zm5-1,.34,0,0-.17L37.43,74c1.14.53,2.85,1.26,4.81,2.08-1.51,1.18-3.13,2.43-4.82,3.71-1.68-1.28-3.3-2.53-4.81-3.71C33.71,75.63,34.74,75.2,35.63,74.81Zm2.94-1.37a.83.83,0,0,0,.17-.11,6.49,6.49,0,0,0,2.71-3c.53-1,1.2-2.37,2.22-4.5l.3-.63c2.89-6,6.31-7.1,7.77-7.57l.19-.06a1,1,0,0,1,.18,0l0,.23-.18.09a15.61,15.61,0,0,0-5.49,4.4l-.3.4.81.59.3-.4a14.67,14.67,0,0,1,5.14-4.1,4,4,0,0,0,.47-.27l.2-.11a.66.66,0,0,1,.08.25,17.27,17.27,0,0,0-5.56,4.53l-.28.42.82.57.28-.41a16.64,16.64,0,0,1,5.28-4.27,1.17,1.17,0,0,1-.32.65l-.47.43c-.64-.06-1.93.34-4,3.22l-.3.4.82.59.29-.41A9.73,9.73,0,0,1,52,61.9a15.6,15.6,0,0,0-3.54,5.93l-.27.67a18.19,18.19,0,0,1-4,6L44,74.41l-.13.34c-.29.27-.54.48-.74.64C41.38,74.65,39.76,74,38.57,73.44Zm-16-21.65a39.44,39.44,0,0,0,1.31,5.05l-.45-.14-.18-.06a1.21,1.21,0,0,0-1.15.09c-.61-2-1-3.55-1.11-4.16A3.84,3.84,0,0,1,22.55,51.79ZM17.19,54a2.11,2.11,0,0,1,.94-1A2.79,2.79,0,0,1,20,52.79c.13.58.43,1.91.93,3.64l.32,1a1.88,1.88,0,0,0-.49.9l-.27.07a1.85,1.85,0,0,0,.36,2.41l.51.47a2.44,2.44,0,0,0,.81,1.26,14.83,14.83,0,0,1,3.33,5.6c.13.34.26.67.4,1l-.21,0,.07.29,0,.2S26.56,73,27.74,77l-1.14.46c-.92-3.16-1.71-6.15-2.25-8.36s-.9-3.72-.91-3.75l-.11-.48-1,.22.11.48s.28,1.23.75,3.14c.57,2.29,1.43,5.6,2.46,9.12L24,78.48c-.94-3.68-1.78-7.34-2.42-10.43-.27-1.32-.5-2.53-.68-3.6-1-5.7-2.13-8.41-3-9.69A4.09,4.09,0,0,0,17.19,54Zm2.73,21.42s.09,1.81.26,4.62l-.88.35L19,66.84,18.93,61a10.83,10.83,0,0,0-.1-1.39,47,47,0,0,1,1.1,5c.15.89.33,1.87.55,2.93.64,3.27,1.56,7.28,2.59,11.31l-1.91.75c-.16-2.62-.24-4.29-.24-4.29l0-.5-1,.05ZM12.24,96.1a1.46,1.46,0,0,1-1.06-.67c-2-2.79-1-13,1-21.93.64-2.92,1.11-5.66,1.53-8.09.1-.61.2-1.2.3-1.78.63-3.56,1.23-6.46,2.24-8.26a27.5,27.5,0,0,1,.43,9.81,2.51,2.51,0,0,1,0,.27c-.21,1.49-.52,2.91-.81,4.3-.89,4.15-1.72,8.06.19,12.08l.86,12.31C14.64,95.42,13,96.17,12.24,96.1Zm18.1-11.18.05.12c-1.47,1.06-2.92,2.1-4.34,3.09l-.39.12,0,.13-1.18.82-.46,0,0,.24c-.93.64-1.84,1.25-2.71,1.83l-.36,0,0,.19c-1.15.75-2.23,1.44-3.23,2L17,81.67l-.05-.19c-1.82-3.74-1-7.34-.15-11.52.27-1.28.55-2.58.76-3.95,0-.23.07-.46.1-.69a27.37,27.37,0,0,0,.25-4.82c0,.18,0,.36,0,.54l.1,5.25.29,14.79.68.45,1.81-.71.42,0v-.13l2.59-1,.45-.11,0-.06,2-.78.69-.2,0-.07,1.64-.65.45-.14v0l2.59-1L33.37,78l3.23,2.48c-1.91,1.44-3.87,2.9-5.83,4.33ZM39.56,88a15.24,15.24,0,0,1-2.72,5.64c-.9-.17-2.65-1.58-5.24-8.25,2.1-1.54,4.09-3,5.82-4.35l1.35,1a9.18,9.18,0,0,1-3.49,3.54l-.45.23.46.88.45-.23a9.82,9.82,0,0,0,3.83-3.82l1.34,1C40.48,85,40,86.45,39.56,88Zm1.67-5.35L40,81.74l.11-.3-.93-.36,0,0c-.3-.24-.61-.46-.91-.69,2.51-1.91,4.37-3.37,5-3.87C42.8,77.9,42.09,80,41.23,82.66Zm4.36,3.19c-1.17-.84-2.34-1.7-3.51-2.56.9-2.82,1.64-5,2.12-6.4,1.19.49,2.42,1,3.65,1.47C47.07,81,46.32,83.47,45.59,85.85Zm3.5,2.49-2.64-1.88c.75-2.43,1.52-5,2.33-7.72l2.54,1C50.66,82.38,49.91,85.27,49.09,88.34Zm4.34,3c.14-.53.28-1.07.43-1.59.27-1,.54-2,.8-3,0,1.67.05,3.51.14,5.47Zm1.51-10c-.54,2.55-1.27,5.25-2,8.11-.11.42-.23.84-.34,1.26-.84-.56-1.7-1.14-2.58-1.76.84-3.15,1.61-6.12,2.29-8.82L55,81.19Zm.25-1.13-2.68-1.06c1.84-7.29,3-12.46,3.32-13.82l-.24,12.9C55.45,78.94,55.31,79.6,55.19,80.2Zm8.48,15.23a1.46,1.46,0,0,1-1.06.67c-1,.08-3.48-1.2-6.77-3.26A62.51,62.51,0,0,1,56,81.45l.56-.37.06-2.77c.83-4.35,1.93-11.1,2.61-16.62.17-1.38.32-2.67.43-3.84.25.84.47,1.78.67,2.8.3,1.43.58,3,.87,4.76.42,2.43.89,5.17,1.53,8.09C64.64,82.4,65.7,92.64,63.67,95.43Z"/><path class="cls-1" d="M38.5,55.38A4.82,4.82,0,0,1,42,52.71a13.25,13.25,0,0,0,5.09-2.09l.4-.3-.59-.8-.41.3a12.49,12.49,0,0,1-4.68,1.91A5.77,5.77,0,0,0,37.57,55l-.18.46.93.37Z"/><path class="cls-1" d="M40.86,95l-1-.21-.1.49c-1.14,5.4-3.17,7.93-3.19,8l-.31.39.77.63.31-.38c.09-.11,2.2-2.71,3.4-8.38Z"/><path class="cls-1" d="M26.6,27.55l0,0-.32.38a2.89,2.89,0,0,1-1.92,1.16,2.33,2.33,0,0,1-1.63-.65l-.36-.34-.69.73.37.34a3.35,3.35,0,0,0,2.2.92h.16a3.43,3.43,0,0,0,2.13-1,8.6,8.6,0,0,0,3.09-1.41l-3-.13Z"/><path class="cls-1" d="M23.43,20.94a2.08,2.08,0,0,1-1.24-.83L22,19.66l-.89.44.22.45a2.93,2.93,0,0,0,1.83,1.35,5.88,5.88,0,0,0,1.68.24A6.53,6.53,0,0,0,28,21.31c2.54-1.43,4.33-.58,5.06-.06A6.4,6.4,0,0,0,31.8,22a3.32,3.32,0,0,1-2.94.87.85.85,0,0,1-.62-.53l-.14-.48-1,.27.14.48a1.83,1.83,0,0,0,1.28,1.22,3.28,3.28,0,0,0,.88.12,4.84,4.84,0,0,0,3-1.17,3.5,3.5,0,0,1,2.57-1,1.7,1.7,0,0,1,.6.2,4.87,4.87,0,0,0,.73.7l.08.12,0,0a1.28,1.28,0,0,0,.27.16.79.79,0,0,0,.39.05.84.84,0,0,0,.24-.07l.13.07.23.11a5.85,5.85,0,0,0-1,2,5.83,5.83,0,0,0,2-1,.91.91,0,0,0,.19-.37,1.1,1.1,0,0,0,0-.18c.25.09.52.17.83.25a6,6,0,0,0-.68,2.07A5.84,5.84,0,0,0,41,24.73a.82.82,0,0,0,.15-.39.81.81,0,0,0,0-.22c.23,0,.45.07.7.09a6,6,0,0,0-.35,2.12,5.7,5.7,0,0,0,1.69-1.46.83.83,0,0,0,.08-.41.78.78,0,0,0,0-.22l.86-.06a6.2,6.2,0,0,0-.05,2.11,5.84,5.84,0,0,0,1.48-1.68.81.81,0,0,0,0-.42.59.59,0,0,0-.1-.26,6.14,6.14,0,0,0,.73-.22,6.21,6.21,0,0,0,.41,2.09,5.88,5.88,0,0,0,1.08-2,.72.72,0,0,0-.06-.42.73.73,0,0,0-.16-.23,8.48,8.48,0,0,0,1-.56l.42-.26-.53-.85-.43.27c-.22.14-.45.26-.68.38a.82.82,0,0,0-.14-.39,5.93,5.93,0,0,0-1.87-1.23A5.85,5.85,0,0,0,46,22.72h0l-.48.15a.87.87,0,0,0-.05-.41,6.06,6.06,0,0,0-1.57-1.59,5.7,5.7,0,0,0,.22,2.26h0l-.74.07s0,0,0-.06a.86.86,0,0,0,0-.42,5.91,5.91,0,0,0-1.34-1.8,5.93,5.93,0,0,0-.1,2.25l-.55-.07s0,0,.05-.06a.77.77,0,0,0,.06-.41,5.88,5.88,0,0,0-1-2A5.87,5.87,0,0,0,40,22.86l-.68-.19s.07-.05.09-.1a.81.81,0,0,0,.11-.4,5.93,5.93,0,0,0-.83-2.08,6,6,0,0,0-.67,2.07c-.06,0-.1,0-.1-.05L37.7,22a.83.83,0,0,0-.07-.13.81.81,0,0,0-.31-.28,3,3,0,0,0-.84-.19,2.61,2.61,0,0,0-1.32-.57,3.53,3.53,0,0,0-1,.05h0s-2.63-2.68-6.64-.42A5.31,5.31,0,0,1,23.43,20.94Z"/></svg>