<svg xmlns="http://www.w3.org/2000/svg" viewBox="0 0 116.68 86.02"><defs><style>.cls-1{fill:#d8bfa0;}</style></defs><title>Asset 10</title><g id="Layer_2" data-name="Layer 2"><g id="OBJECTS"><path class="cls-1" d="M116.56,61.12l.07-.11L98.4,23.78c.71-.28,1.42-.6,2.15-1,2.34-1.16,3.81-2.84,4.14-4.76a4.75,4.75,0,0,0-1.3-4.15A4.63,4.63,0,0,0,99,12.65,5.07,5.07,0,0,0,95.32,16a6.72,6.72,0,0,1-8,4.46,27.09,27.09,0,0,1-2.93-.93L80,17.81c-6.26-2.46-9.2-3.62-16.22-3.78-.09-1.29-.76-5-4.88-9.5a2.31,2.31,0,1,0-1.18,0c-4.12,4.54-4.79,8.22-4.88,9.51-7,.17-9.89,1.32-16.12,3.77l-4.43,1.72a27.8,27.8,0,0,1-2.93.93,6.72,6.72,0,0,1-8-4.46,5.07,5.07,0,0,0-3.66-3.35,4.63,4.63,0,0,0-4.41,1.27A4.75,4.75,0,0,0,12,18.07c.33,1.92,1.8,3.6,4.14,4.76.73.35,1.44.67,2.15,1L.05,61l.07.11L0,61.24l0,.15a19.94,19.94,0,0,0,37.85,0l-.13-.17.13-.21L20,24.4a21.87,21.87,0,0,0,7,1.19c4.46,0,9-1.43,14.3-4.32A16.53,16.53,0,0,1,52.8,19.72V24a6.23,6.23,0,0,0,1.48,4.28,4.64,4.64,0,0,0,1.51,1v33a4.71,4.71,0,0,0-1.61,1.08,5.72,5.72,0,0,0-1.38,3.88V75.3a5.94,5.94,0,0,1-5.93,5.93H39.94l-.5.5v2.15H24.65V86H91.93V83.88H77.15V81.73l-.5-.5H69.72a6,6,0,0,1-5.94-5.93v-8a5.65,5.65,0,0,0-1.37-3.91,4.61,4.61,0,0,0-1.62-1.08v-33a4.64,4.64,0,0,0,1.51-1A6.25,6.25,0,0,0,63.78,24V19.74a16.54,16.54,0,0,1,11.63,1.53c5.27,2.89,9.85,4.32,14.31,4.32a21.87,21.87,0,0,0,7-1.19L78.8,61l.13.21-.13.17a19.94,19.94,0,0,0,37.85,0l0-.15ZM1.3,60.73,19,24.66,36.63,60.73ZM52.8,15.52V18.7a17.48,17.48,0,0,0-12,1.69c-9.3,5.11-16.08,5.54-24.21,1.54-2-1-3.32-2.44-3.6-4a3.79,3.79,0,0,1,1-3.28,3.56,3.56,0,0,1,2.58-1.1,3.83,3.83,0,0,1,.88.1,4,4,0,0,1,2.94,2.69,7.71,7.71,0,0,0,9.17,5.12,27,27,0,0,0,3-1c1.68-.63,3.13-1.21,4.44-1.72,6.29-2.48,9-3.54,15.74-3.7v.48Zm10,51.7V75.3a7,7,0,0,0,6.94,6.93h6.43v1.15H40.44V82.23h6.43A6.94,6.94,0,0,0,53.8,75.3V67.19A4.68,4.68,0,0,1,54.91,64a4.44,4.44,0,0,1,3.38-1.22A4.47,4.47,0,0,1,61.67,64,4.67,4.67,0,0,1,62.78,67.22ZM61.57,27.58a3.77,3.77,0,0,1-.78.6V26.91h-5v1.27a3.77,3.77,0,0,1-.78-.6A5.36,5.36,0,0,1,53.8,24V15.42c0-.07,0-.22,0-.41h9v9A5.34,5.34,0,0,1,61.57,27.58ZM75.9,20.39a16.94,16.94,0,0,0-8.23-2.09,18.66,18.66,0,0,0-3.79.4V15.55a3.93,3.93,0,0,0,0-.52c6.75.17,9.46,1.23,15.75,3.71,1.31.51,2.77,1.09,4.45,1.72a27,27,0,0,0,3,1,7.71,7.71,0,0,0,9.17-5.12,4,4,0,0,1,2.94-2.69,3.58,3.58,0,0,1,3.46,1,3.79,3.79,0,0,1,1,3.28c-.28,1.59-1.56,3-3.6,4C92,25.93,85.19,25.5,75.9,20.39Zm21.81,4.27,17.67,36.07H80.05Z"/></g></g></svg>