<svg xmlns="http://www.w3.org/2000/svg" viewBox="0 0 93.56 113.77"><defs><style>.cls-1{fill:#d8bfa0;}</style></defs><title>Asset 15</title><g id="Layer_2" data-name="Layer 2"><g id="OBJECTS"><path class="cls-1" d="M35.7,56.71c1.83-2.14,3.16-3.88,3.3-4.06l-.14-.73c-8.68-5.11-16.2.74-19.81,3.54a5.36,5.36,0,0,1-2.56,1.2c-.46.1-1.79-1-2.47-1.74A18.83,18.83,0,0,1,9.4,44.17a25.54,25.54,0,0,1,0-3.26c0-.49.09-1,.16-1.5l0-.06c1.05-8.73,6.84-12.82,12.11-13a10.46,10.46,0,0,1,10.76,8.84l-.09.37.18,0A30,30,0,0,0,47.19,56.06l.57-.1c10-10,12.59-22.43,7.37-32.26,4.65-9.17-3-23.7-3-23.7a26.67,26.67,0,0,1-3.23,7.83c-1.52,2.53-7,2.53-11.25,2.1-1-.31-2-.59-2.95-.81V9.05l-.48-.12a8.21,8.21,0,0,0-1.59-.22c-8.18-1.34-16.89.44-23.74,6.81l-.52.5A28.61,28.61,0,0,0,6.33,54.24,21.57,21.57,0,0,0,10.12,58c.33.26.89.72,1.39,1.18a1,1,0,0,1,0,1.51C7.79,64.09,5.72,67.12,5.18,70c-1.36,7.17,3,11,3.19,11.17l.59,0A113,113,0,0,0,18.74,73a7.25,7.25,0,0,0,2.73-5.29,7.56,7.56,0,0,0-1.24-4c1.89,1.18,4,2,5.89,1.42,2.57-.79,6.47-4.84,9.31-8.12l.31-.27ZM31.28,60a8.52,8.52,0,0,0-7.13-2.27l-.49.08.17,1,.49-.09a7.63,7.63,0,0,1,6.24,2,14.59,14.59,0,0,1-4.73,3.43c-3.13,1-7.61-3.13-9.3-4.67l-.23-.2-.69.72.56.53c1.51,1.43,4.33,4.07,4.3,7.13a6.28,6.28,0,0,1-2.4,4.56c-.52.47-1,.92-1.5,1.35a8.61,8.61,0,0,1-1.11-6.86l.14-.48-1-.28-.14.48a9.51,9.51,0,0,0,1.31,7.81q-1.92,1.7-3.39,2.92a8.52,8.52,0,0,1-1-6.75l.14-.48-1-.28-.14.48a9.49,9.49,0,0,0,1.22,7.68C10.26,79,9.26,79.75,8.75,80.12a11.08,11.08,0,0,1-2.59-10c.49-2.59,2.52-5.52,6-8.73a2,2,0,0,0,.66-1.48,2.08,2.08,0,0,0-.64-1.5c-.53-.49-1.13-1-1.48-1.24a21.05,21.05,0,0,1-3.61-3.59,27.59,27.59,0,0,1,2-36.88c.16-.17.32-.33.49-.48a26,26,0,0,1,17.81-7,20.36,20.36,0,0,0-10.16,6.9l.24.8L34.7,22l.28-1L18.54,16.24C24.08,10,30,9.54,32.59,9.7a32.75,32.75,0,0,1,17.53,8.93c10,10,8.82,24.54-2.81,36.37A29.17,29.17,0,0,1,33.4,35.19a12.45,12.45,0,0,1,7.83-7.71l.47-.17-.35-.94-.47.17a13.67,13.67,0,0,0-7.91,7,11.32,11.32,0,0,0-11.39-8.17c-5.71.19-12,4.57-13.07,13.91l0,.05c-.07.52-.12,1-.16,1.53a27.92,27.92,0,0,0,0,3.41,19.59,19.59,0,0,0,4.88,11.34c.08.09,2.07,2.27,3.36,2.06a6.48,6.48,0,0,0,3-1.4C23,53.64,30,48.24,37.85,52.5c-.51.66-1.55,2-2.85,3.48a8.46,8.46,0,0,0-7.08-2.23l-.49.09.17,1,.49-.09a7.68,7.68,0,0,1,6.26,2C33.39,57.83,32.34,59,31.28,60Z"/><path class="cls-1" d="M48.77,36.91a33.31,33.31,0,0,1,1.87,6.32S54.15,39.18,48.77,36.91Z"/><path class="cls-1" d="M87.23,59.53a21.88,21.88,0,0,0-3.78-3.75c-.33-.25-.89-.71-1.39-1.18a1,1,0,0,1,0-1.51c3.66-3.35,5.79-6.48,6.32-9.29,1.36-7.17-3-11-3.19-11.17l-.59-.05a114.75,114.75,0,0,0-9.78,8.2,7.28,7.28,0,0,0-2.73,5.29,7.57,7.57,0,0,0,1.25,4c-1.89-1.18-4-2-5.9-1.42-2.57.8-6.47,4.84-9.31,8.12l-.3.28,0,0c-1.83,2.13-3.16,3.87-3.29,4l.14.73c8.68,5.11,16.19-.73,19.8-3.54a5.5,5.5,0,0,1,2.56-1.2c.48-.06,1.79,1,2.48,1.74A18.55,18.55,0,0,1,84.16,69.6a27.76,27.76,0,0,1,0,3.27c0,.48-.09,1-.17,1.49l0,.06c-1,8.73-6.84,12.82-12.11,13A10.42,10.42,0,0,1,61.2,78.59l.08-.37-.17,0A30,30,0,0,0,46.37,57.71l-.57.1c-10,10-12.59,22.43-7.37,32.26-4.64,9.17,3,23.7,3,23.7a26.67,26.67,0,0,1,3.23-7.83c1.52-2.53,7-2.53,11.28-2.1,1,.31,1.94.58,2.93.81l0,.07.48.13a11.44,11.44,0,0,0,1.55.21,31.31,31.31,0,0,0,5.12.43,27,27,0,0,0,18.67-7.24c.17-.16.34-.32.51-.5A28.6,28.6,0,0,0,87.23,59.53ZM84.44,97l-.49.48a25.94,25.94,0,0,1-17.82,7A20.26,20.26,0,0,0,76.3,97.59l-.25-.8-17.19-5-.28,1L75,97.53c-5.55,6.23-11.42,6.7-14.06,6.54a32.71,32.71,0,0,1-17.52-8.92c-10-10-8.83-24.55,2.8-36.37a29.08,29.08,0,0,1,13.92,19.8,12.48,12.48,0,0,1-7.83,7.71l-.47.17.34.94.47-.17a13.67,13.67,0,0,0,7.91-7A11.38,11.38,0,0,0,72,88.43c5.7-.2,12-4.58,13.06-13.92l0-.05c.07-.52.13-1,.16-1.53a27.92,27.92,0,0,0,0-3.41,19.53,19.53,0,0,0-4.87-11.34c-.09-.09-2.07-2.25-3.37-2.06a6.49,6.49,0,0,0-3,1.4c-3.37,2.62-10.3,8-18.19,3.75.52-.66,1.56-2,2.85-3.48a8.76,8.76,0,0,0,5.75,2.35A7.73,7.73,0,0,0,65.64,60l.5-.08L66,59l-.49.09a7.64,7.64,0,0,1-6.25-2c1-1.08,2-2.23,3.06-3.3a8.79,8.79,0,0,0,5.8,2.39A7.73,7.73,0,0,0,69.41,56l.49-.08-.17-1-.49.09A7.64,7.64,0,0,1,63,53a14.67,14.67,0,0,1,4.74-3.44c3.13-1,7.61,3.13,9.3,4.67l.22.21.69-.73-.56-.53c-1.51-1.42-4.32-4.07-4.3-7.13a6.35,6.35,0,0,1,2.41-4.56L77,40.17A8.56,8.56,0,0,1,78.1,47l-.14.48,1,.28.14-.48a9.51,9.51,0,0,0-1.31-7.81c1.28-1.13,2.42-2.1,3.39-2.92a8.58,8.58,0,0,1,1,6.75l-.14.48,1,.28.14-.48a9.45,9.45,0,0,0-1.23-7.67c1.38-1.15,2.38-1.92,2.89-2.29a11.1,11.1,0,0,1,2.59,10c-.49,2.59-2.51,5.53-6,8.73a2,2,0,0,0-.66,1.48,2,2,0,0,0,.64,1.5,18.07,18.07,0,0,0,1.47,1.24,21.05,21.05,0,0,1,3.61,3.59A27.59,27.59,0,0,1,84.44,97Z"/><path class="cls-1" d="M44.8,76.86a32.52,32.52,0,0,1-1.87-6.32S39.42,74.59,44.8,76.86Z"/></g></g></svg>