<svg xmlns="http://www.w3.org/2000/svg" viewBox="0 0 101.69 95.22"><defs><style>.cls-1{fill:#d8bfa0;}</style></defs><title>Asset 11</title><g id="Layer_2" data-name="Layer 2"><g id="OBJECTS"><path class="cls-1" d="M101.69,71.41S98.56,62,89.48,60.16c-5.74-1.19-8.57-.94-10.6.84-.9-1.36-4-3.94-6.6-2.23l-.36-1.93c-2.72-.48-4.57-.11-5.83.63-2.21-5.68-8-9.51-8.73-10l-.25-.32-.12.09-.14-.08-.13.21a7,7,0,0,0-1.94.34,27.6,27.6,0,0,0-5.16-4.38h-.23l0-.08a6.46,6.46,0,0,0-3.34.85,27.62,27.62,0,0,0-5.56-4.88l-.25-.32-.12.09L40,38.9l-.13.2a6.49,6.49,0,0,0-6.08,5.06,19.53,19.53,0,0,0-7.16-.28C21.1,39.84,8.84,29.69,8.84,20,8.84,7.65,20.71,7.07,21.22,7.05h0c.39,9,11.1,10.66,11.1,10.66S30.37,16,30.37,9.42,30.23,0,26.19,0c-3.07,0-4.35,1.54-4.79,2.29l-.07-.09C21,2.13,14.16.29,8.14,4.08,4.07,6.64,1.43,11.14.29,17.46-2.55,33.2,16.4,50.32,22.37,55.26c.15.29.31.58.48.86-3.3-.07-8.64.43-12.08,3.9-.55.35-8.54,5.48-9.56,12.94l.87.39c.09-.09,8.75-9.84,15.44-13.15l0-.13a49.78,49.78,0,0,1,8-.1c.47.59,1,1.18,1.46,1.76-3.24.8-7.4,2.44-9.62,5.79-.45.43-7,6.8-6.61,13.9l.93.23c.06-.11,6.39-10.87,12-15.29l0,0a58.81,58.81,0,0,1,6.18-1.52c.64.64,1.28,1.26,1.93,1.86-3,1.31-6.49,3.44-8.22,6.73-.4.48-6.26,7.56-5.22,14.58l.95.14c.05-.12,5.3-11.55,10.46-16.58l-.16-.24c1.54-.72,3.27-1.47,5.06-2.1a34,34,0,0,0,7.1,4.89,29.28,29.28,0,0,0,10.86,5.23c-.55,1.48-1.64,6.16,5.22,8.8L59,86.62c1.51,2.84,5.38,2.21,6.77,1.49h0c1,2.62,3.36,4.32,8.92,6.28,8.79,3.1,15.69-3.49,15.69-3.49L77.74,88.12l11.19-2a40.73,40.73,0,0,0-13.6-6.48,11.47,11.47,0,0,0-10.24,2.76H62.32L63.41,81,60.5,79.23A14.43,14.43,0,0,0,68.09,75a8.62,8.62,0,0,0,1.82-9l3.75,0-.35-1.8h0l2.43,1.45A12.64,12.64,0,0,0,83.5,73.4a38.73,38.73,0,0,0,14.79,1.42l-8.93-7.58ZM65.12,84.22c0-.11,0-.21,0-.32C65.11,84,65.12,84.11,65.12,84.22ZM65.45,87a.83.83,0,0,0,0-.15A.83.83,0,0,1,65.45,87ZM51.68,52.36l1.63.9a5,5,0,0,0-.07.54l-1.69-.94C51.58,52.73,51.62,52.56,51.68,52.36Zm.39-1a7.12,7.12,0,0,1,.39-.7l1.24,1.17c-.05.12-.1.23-.14.35C53.09,52,52.59,51.69,52.07,51.41Zm-8.13-2.82c.57.24,1.13.5,1.69.75,0,.13,0,.25-.05.37-.77-.44-1.36-.76-1.69-.94A1.67,1.67,0,0,1,43.94,48.59Zm-5.46-6.1c1.77,1.37,3.51,2.91,5.06,4.38-.06.12-.12.24-.17.36a61.75,61.75,0,0,0-6-2.16A8.07,8.07,0,0,1,38.48,42.49Zm5.81,5.09.07.07-.09,0Zm1.53-2.12c.28.35.55.71.8,1.09A11.35,11.35,0,0,0,46,47.87l-1.23-1.21A5.24,5.24,0,0,1,45.82,45.46ZM47,48.84l-.18-.19a6.82,6.82,0,0,1,.45-1.13,14.58,14.58,0,0,1,.94,1.9C47.8,49.22,47.39,49,47,48.84Zm1.07-2c1.26,1,2.51,2.08,3.68,3.15a7.14,7.14,0,0,0-.53.91c-.55-.3-1.13-.59-1.72-.89A15.67,15.67,0,0,0,48.05,46.89Zm9.78,7.75c-.74-.78-1.75-1.83-2.95-3,.16-.31.32-.61.5-.9l1,.83A14,14,0,0,1,57.83,54.64Zm-3-4.82a10.62,10.62,0,0,0-.65,1.1l-1.05-1a4.92,4.92,0,0,1,1.41-1c.15.17.29.35.44.53l-.17.3Zm-.3,2.83.23.22-.26-.14Zm4.57,2.83a13.37,13.37,0,0,0-.67-2.26c2.38,2.11,4.52,4.26,5.92,5.72A39.2,39.2,0,0,0,59.05,55.48Zm6.2,2.61-.2.19a92.39,92.39,0,0,0-7.83-7.35,16.63,16.63,0,0,0-1-1.45,12.93,12.93,0,0,1,.84-1C58.43,49.39,63.4,53.05,65.25,58.09ZM55.61,48.5l-.07.08,0,0Zm-1.82-.37a5.83,5.83,0,0,0-1.43,1.12c-1.29-1.17-2.68-2.36-4.08-3.44a16.5,16.5,0,0,1,1.15-1.43A27.68,27.68,0,0,1,53.79,48.13ZM48,44.41a9.22,9.22,0,0,0-.8,1.13c-.15-.22-.31-.44-.48-.65A5.23,5.23,0,0,1,48,44.41Zm-2.76.29A6.17,6.17,0,0,0,44.05,46c-1.54-1.45-3.27-3-5-4.32a16.5,16.5,0,0,1,1.15-1.43A27.53,27.53,0,0,1,45.19,44.7Zm-6.48-4.44a7.54,7.54,0,0,0-.85,1.23l0,.09a9.4,9.4,0,0,0-1.44,3.22c-.58-.16-1.16-.31-1.73-.44A5.54,5.54,0,0,1,38.71,40.26Zm-21.3-2.9a11,11,0,0,1-6.21,5.35,58.81,58.81,0,0,1-6.3-9,10.77,10.77,0,0,0,6.93-2.9A47.65,47.65,0,0,0,17.41,37.36ZM11.13,29.7a9.8,9.8,0,0,1-6.9,2.71A26.52,26.52,0,0,1,1,21a10.35,10.35,0,0,0,3.68.72,8.77,8.77,0,0,0,3.2-.62A19.52,19.52,0,0,0,11.13,29.7ZM8.66,4.93a15.54,15.54,0,0,1,8.28-2.22,19,19,0,0,1,3.76.37v3c-1.59.17-6.76,1-10,5.07A8.82,8.82,0,0,1,6.92,6.27,13.21,13.21,0,0,1,8.66,4.93ZM6,7.15a10.2,10.2,0,0,0,3.93,5,14,14,0,0,0-2.07,7.55,8.32,8.32,0,0,1-6.8,0,15.66,15.66,0,0,1,.22-2.05C2.08,13.16,3.66,9.65,6,7.15Zm15.39,46a96.24,96.24,0,0,1-9.32-9.37,12,12,0,0,0,6.27-5.47,78.57,78.57,0,0,0,7,5.93,8.71,8.71,0,0,0-2,.89h0q-.32.21-.63.45l-.07.06a4.28,4.28,0,0,0-.45.41l-.18.19-.32.39-.22.33-.08.13a5.46,5.46,0,0,0-.53,1.3v.06a5.79,5.79,0,0,0-.15,1.69v0c0,.1,0,.2,0,.3a10.13,10.13,0,0,0,.64,2.64ZM2.6,71.31c1.78-5.77,7.86-9.89,8.64-10.41.39,0,1.83-.26,3.81-.45C10.17,63.51,5,68.8,2.6,71.31ZM12.78,59.62c3-2.06,6.87-2.49,9.6-2.49q.6,0,1.11,0c.38.58.79,1.16,1.22,1.74A60.77,60.77,0,0,0,12.78,59.62Zm11.9-2.39.8.09,2.33,1.91c-.6-.09-1.22-.17-1.84-.23Q25.28,58.11,24.68,57.23Zm3.08,5.37c.41.45.82.89,1.24,1.33a67,67,0,0,0-9.7,2.79C21.6,64.4,25.09,63.2,27.76,62.6Zm2.36,1.13c-.44-.45-.87-.9-1.29-1.36A26,26,0,0,1,31.42,62l2.26,1.31A32.39,32.39,0,0,0,30.12,63.73ZM11.83,79.48c.73-5.62,5.54-10.56,6.18-11.2.34-.13,1.57-.58,3.29-1.14C17.4,70.9,13.6,76.66,11.83,79.48Zm7.4,6.45c.19-5.68,4.5-11.14,5.06-11.83.33-.17,1.5-.76,3.14-1.51A73.59,73.59,0,0,0,19.23,85.93Zm6.32-13.7a18.62,18.62,0,0,1,7.06-4.81c.39.36.78.7,1.16,1A63.47,63.47,0,0,0,25.55,72.23ZM33.6,67A31.6,31.6,0,0,1,37,66l2.15,1a29.25,29.25,0,0,0-4.36,1.14Zm7.44.68.17-.95L37.27,65,37,65a29.53,29.53,0,0,0-4.2,1.32c-.59-.53-1.17-1.09-1.75-1.65a23.46,23.46,0,0,1,4.48-.31l.28-.93-4-2.31L31.51,61a25.89,25.89,0,0,0-3.47.5c-.41-.46-.81-.93-1.19-1.39a20.63,20.63,0,0,1,2.73.52l.45-.87-4-3.3-.24-.11c-.1,0-.76-.11-1.78-.18-.3-.49-.57-1-.83-1.46l0,0c-1.9-3.61-2-6.31-.2-8l.07-.07a6.07,6.07,0,0,1,.83-.64h0a7.35,7.35,0,0,1,1-.49l.37-.15c.24-.09.49-.16.74-.23s.39-.11.6-.15h0a12.56,12.56,0,0,1,2.59-.26,23.48,23.48,0,0,1,4.62.53l.07.15s1.06.56,2.77,1.54l.74-.51a2,2,0,0,1,0-.25c1.88.59,3.8,1.3,5.67,2.08-.13.46-.18.76-.19.77l.26.52S44.15,50,45.86,51l.75-.51a3.61,3.61,0,0,1,0-.66c1.52,1.55,2.49,2.64,2.51,2.67l.87-.4c0-.25-.09-.49-.14-.74l1,.51a7.17,7.17,0,0,0-.31,1.17l.26.51s1.06.56,2.77,1.54l.74-.5a3.83,3.83,0,0,1,0-.83c1.24.71,2.27,1.32,3,1.76h0l-.14,0-1.13.23-.39.11-.8.22-.43.14-.71.25-.41.16-.69.3-.36.16-.75.4a2.39,2.39,0,0,0-.22.12c-.32.17-.62.36-.91.55l-.22.16c-.22.14-.43.29-.64.44l-.3.24-.5.4-.29.26-.46.42-.27.27-.45.46-.22.24c-.19.2-.36.41-.53.62l-.09.1-.57.74-.17.25c-.12.17-.24.33-.35.51l-.19.29c-.1.16-.2.31-.29.47l-.18.3c-.09.16-.18.32-.26.48l-.16.29-.27.52a1.63,1.63,0,0,1-.11.23c-.12.25-.23.5-.34.74a1,1,0,0,1,0,.1l-.27.64-.09.24-.18.48-.09.26-.15.44a2.58,2.58,0,0,0-.08.26c0,.14-.09.29-.14.43l-.06.22c-.05.17-.09.33-.14.49l0,.13-.15.59L42,71c0,.16-.07.31-.1.46l0,.14c0,.12-.05.24-.07.36l0,.13c0,.11,0,.22-.05.32l0,.1c0,.11,0,.21-.05.31v.1a35.81,35.81,0,0,1-5.88-4.08A23.63,23.63,0,0,1,41,67.71Zm26.32,6.64c-1.85,2-5.32,4.35-11.31,4.35H56c-6.16,0-12.23-4.37-13.42-5.27a.9.9,0,0,0,0-.18v-.06l0-.19s0-.08,0-.12l0-.2,0-.17a1.7,1.7,0,0,1,0-.22l0-.21c0-.08,0-.16,0-.25s0-.15,0-.23,0-.17.06-.27l.06-.25.06-.29a2.86,2.86,0,0,0,.07-.28c0-.1.06-.2.08-.3l.09-.31.09-.32c0-.1.06-.21.1-.32s.07-.22.1-.33l.12-.34.12-.34.13-.36a3.42,3.42,0,0,0,.13-.34c.05-.13.11-.26.17-.39s.09-.21.13-.32l.21-.46c.05-.09.09-.18.13-.27l.37-.73.15-.26.27-.47.19-.32.27-.42.22-.33.29-.4.24-.33.31-.39.27-.33.33-.37.3-.32.35-.36.33-.31.38-.35.35-.3.41-.33.38-.28.45-.31.39-.26.49-.3.42-.23c.17-.1.35-.19.53-.28l.44-.21.59-.25c.14-.06.29-.13.44-.18s.45-.17.68-.24l.42-.14c.3-.1.61-.18.93-.26l.24-.06c.4-.1.81-.18,1.23-.25l.39-.06.39,0,.22.24.43-.2A38.27,38.27,0,0,1,63.94,60a6.58,6.58,0,0,0-.53,2.39h0a16.21,16.21,0,0,1,2.91,1.33l.32.2c-2.16,1.18-2,4.28-2,4.65a14.65,14.65,0,0,1,3.6-3.6l.28.22a4.52,4.52,0,0,1,.23.5C70.05,69,69.59,72,67.36,74.35Zm9.21-10.28c0,.09-.09.17-.14.26Zm1.52-2.26-.1.11Z"/><path class="cls-1" d="M55.2,73.23A13.83,13.83,0,0,1,62,70.1C61.55,69.82,57,66.74,55.2,73.23Z"/></g></g></svg>