<svg xmlns="http://www.w3.org/2000/svg" viewBox="0 0 121.05 129.07"><defs><style>.cls-1{fill:#d8bfa0;}</style></defs><title>Asset 12</title><g id="Layer_2" data-name="Layer 2"><g id="OBJECTS"><path class="cls-1" d="M121.05,36.39l-6.79-2.13.81,1.63h-7.54A5.83,5.83,0,0,0,109,32.23c.12-4.26-4.53-8.85-9.44-13.72-.7-.69-1.4-1.38-2.09-2.08C91.74,10.62,89.22,7.36,89.21.5V0h-1V.5a21.57,21.57,0,0,0,.28,3.55L81.64,17.61l-.08-2.29-.62-.47-1.09.28a4.62,4.62,0,0,0-1.66-2.38A5.9,5.9,0,0,0,74,11.83c-1.12-1.7-5.51-7.43-11.55-3.49C55.55,12.86,64.07,22.12,54,29a6.65,6.65,0,0,0,6.17-3.14l-2.11,3.59s6.7-.59,6.7-11.48c0-6.8,4.16-5.43,5.61-4.75a6.25,6.25,0,0,0-2.58,4.85,27.46,27.46,0,0,1-1.46,5.52c-1.28,3.92-1.49,4.79-.93,5.17a.68.68,0,0,0,.82-.09l3.53-.86-.25,1.41a39,39,0,0,0-6.76.56l-.37.08v0L61.9,30a55.78,55.78,0,0,0-7.73,3.66A31.12,31.12,0,0,0,50,36.73l-.14.52.59,1.82.21.27a10.76,10.76,0,0,0,3.61,1.43c.69.1,2.93.18,5.32.23l.55,2.84.85.25.34-.35a7.65,7.65,0,0,0,2.61,3.36l.78-.43v-.48l.8.89a22.13,22.13,0,0,1-14.86,17.4L37.19,68.93a31.6,31.6,0,0,0-7.82,3.84C28.05,70.9,22,63.31,14.2,67.68,0,75.62,15.67,86.41,0,101.91c0,0,11.88,2.3,15.56-6.92,3.09-7.73.6-11.75.52-15.78-.2-11.22,8.84-6.42,11.26-4.94A28.79,28.79,0,0,0,25,76.36a5.14,5.14,0,0,0-.38.42,10.42,10.42,0,0,0-2.39,8.33c.47,3.36,1.61,7.68,4.36,9.56-.29,1.38-1.62,6.77-4.85,8.82l-.23.49a34,34,0,0,1-3.08,17.77l.08.57,3.13,3.35H20.23l-2.45,3.4h68a6.23,6.23,0,0,0,0-1.31c-.09-.26-3.32-5.42-3.32-5.42l-8.2.27s5.67-2.71,5.94-2.49-2.06-2.72-2.06-2.72l-5.57,0h-.44l3.93,0L73,111.62l-.56-9.48s4.34-14.21,5.54-16l.6-8.33a22.87,22.87,0,0,0,2.44-5l2-5.91a22.93,22.93,0,0,0,1.19-6.61l4.28,8.46a21.66,21.66,0,0,0-.28,3.55v.5h1v-.5c0-6.86,2.53-10.12,8.3-15.93.69-.7,1.39-1.39,2.09-2.08,4.91-4.87,9.56-9.46,9.44-13.72a5.32,5.32,0,0,0-.49-2.07,5.84,5.84,0,0,0,.17-1.59h6.35l-.81,1.63ZM82.17,52.65a20.73,20.73,0,0,1,.67,2.69l-4.46-8.82A15.15,15.15,0,0,1,77.91,43v-.5h-1V43c0,.23,0,.45,0,.67L74.08,38l.27-.4a1.88,1.88,0,0,0-.2-.71h7.21A34.55,34.55,0,0,1,80.2,44.3l-.25.9v.13C79.94,47.41,82.09,52.47,82.17,52.65ZM77.83,27.89l2.57,2.62a19.09,19.09,0,0,0-2.71-.7Zm.3-1.13,2.2-4.36.54.12,1.52,8.6Zm-1.5,3.88-.21,3,1,.07.21-2.86A12.45,12.45,0,0,1,81.26,32a34.06,34.06,0,0,1,.13,3.91H73.52l2.68-5.31ZM72.4,36.89l.3.6-.9.31-.29.26-1,2.16a7.51,7.51,0,0,1-1.28.68A9.06,9.06,0,0,1,67,40.17l-.2,0c-.05,0-3.08,0-6.16-.1l1.29-3.54c.36.14.71.29,1,.43a5.38,5.38,0,0,0,1.78.56,10.22,10.22,0,0,0,4.5-1.22c.53-.33,1.36,0,2.17.26.28.1.54.19.8.26v.11ZM88.81,5.63c1.15,4.4,3.9,7.39,8,11.5.69.7,1.4,1.4,2.1,2.09,4.75,4.71,9.25,9.16,9.14,13a5,5,0,0,1-1.56,3.37l-.22-.06a3.15,3.15,0,0,0-1.79.38H100.7c-.46-.11-1-.25-1.56-.44-3.29-1.06-6.41-.82-8.41-1.29-1.44-.34-5.44-1.47-7.59-2.08l.36-.42L81.79,22l-.39-.4-.6-.13,0-.11.22.08.67-.49,0-1.27Zm-9,15.63-2.88-.61-.53-.9L79.91,21Zm-13.62,6.4c.17-.84.7-2.49,1.12-3.76.77-2.38,1.57-4.84,1.51-5.89-.11-1.9,1.87-4.59,4.47-5.07a5.48,5.48,0,0,1,4.31.61A3.62,3.62,0,0,1,79,15.8l.62.43,1-.26.11,3.5-.33.66-5-1.8-.6.73,1.35,2.29.33.24,2.83.6-2,4-5.5.06-1.51.36h0Zm6.35-.37c.77.55,2,1.45,3,2.2-.68-.08-1.42-.14-2.22-.19-1-.05-1.9-.07-2.76-.08l.29-1.67,1-.25ZM51.33,38.59l-.43-1.33a33.56,33.56,0,0,1,3.8-2.74,58.48,58.48,0,0,1,7.56-3.58l.2-.08h0l.49-.11a39.41,39.41,0,0,1,7-.54l.44.07,0-.07c.89,0,1.85,0,2.87.08.69,0,1.33.09,1.91.15l-2.7,5.36c-.22-.06-.45-.14-.7-.23-1-.36-2.11-.76-3-.16a9.52,9.52,0,0,1-4,1.06A5.69,5.69,0,0,1,63.34,36c-.32-.14-.69-.3-1.08-.45l.46-1.28-.94-.34-.47,1.3a8.4,8.4,0,0,0-4.14-.33l-.49.09.18,1,.49-.09a7.58,7.58,0,0,1,3.62.29L59.57,40c-2.35,0-4.53-.13-5.18-.22A9.56,9.56,0,0,1,51.33,38.59ZM25.9,125.67l.12-.18L24.23,121c.24-1.21,1.94-9.75,2.52-11.43a40.59,40.59,0,0,1,3.73-5.08A34.27,34.27,0,0,1,27.29,122l3.42,3.65-3.07,0Zm8-.07L32.11,121s1.92-9.79,2.56-11.64,14-17.5,14-17.5A60.6,60.6,0,0,0,62.87,90C62.57,93.7,62,99.3,61,102.05l0,.19.32,9.08.12.3,1.33,1.56.22,4.27.3.29-15.17,2.07-3.84,2.53s5.6,2.89,5.86,3.07Zm34.91-14.3L70.27,113l.23,4.43H69.31l.15-.24-3-5.69-.55-9.28c.93-3,3.06-9.82,4.44-13.47-.32,4.79-.9,11-1.82,13.49ZM82.08,66.56l-2,5.91a21.68,21.68,0,0,1-2.55,5.12l-.83.58c.67-6-1.93-13.66-6.41-17.91l-.36-.34-.69.73.36.34c4.43,4.19,7,12.15,6,18l-4.9,3.43s0,1.41-.16,3.5C69.27,87.7,65.08,101.42,64.9,102l0,.17.56,9.48,2.75,5.26-4.28,0-.2-4-.12-.3-1.33-1.55L62,102.3c1.59-4.49,2.14-15.4,2.16-15.87h0a38.91,38.91,0,0,0,0-4.94l-1,0s-.42,2.94-1,5.16c-6.76,3.43-14.91,4.39-19.1,4.65A31.43,31.43,0,0,0,42.24,81l-1,.17c.55,6.39-1.23,10.06-1.43,10.45-1.5,1.77-13.37,15.76-14,17.63s-2.51,11.3-2.59,11.71l0,.28,1.58,4H22.56l-3.07-3.28a34.49,34.49,0,0,0,3.07-17.73c3.86-2.71,5.05-9.35,5.1-9.64L27.42,94c-2.63-1.56-3.72-5.77-4.18-9a9.52,9.52,0,0,1,2.15-7.55c.11-.13.23-.25.34-.37A29.74,29.74,0,0,1,37.5,69.88L51,65.43A23.12,23.12,0,0,0,66.52,47l-.13-.41-1.88-2.06-.87.36,0,.68a5.37,5.37,0,0,1-1.58-2.89l-.86-.28-.3.32L60.6,41c2.77.06,5.5.09,6.08.1a8.87,8.87,0,0,0,2.55.77l.21,0A9,9,0,0,0,71.16,41l.18-.21,1-2.1.83-.29,4.27,8.47c.23.92.5,1.83.77,2.77a30.51,30.51,0,0,1,1.5,7.15C80,62.1,79,64.67,79,64.7l-.18.46.92.38.19-.47c0-.11,1.1-2.78.74-8.36a25.16,25.16,0,0,0-.93-5.22l3.43,6.77A22.3,22.3,0,0,1,82.08,66.56Zm26-26c.11,3.82-4.39,8.27-9.14,13-.7.69-1.41,1.39-2.1,2.09-4.08,4.11-6.84,7.1-8,11.5L84.18,58a22.7,22.7,0,0,0-1.08-5.7C82.51,50.91,81,47,80.94,45.4l.22-.84a36,36,0,0,0,1.13-6.41l4.44.48A32.14,32.14,0,0,1,94,39.1c3.82.7,6.88-.24,9.11.58a12.22,12.22,0,0,0,4.59.65,3,3,0,0,0,.29-.44A5.4,5.4,0,0,1,108,40.58Z"/></g></g></svg>