<svg xmlns="http://www.w3.org/2000/svg" viewBox="0 0 98.34 79.66"><defs><style>.cls-1{fill:#d8bfa0;}</style></defs><title>cancer</title><g id="Layer_2" data-name="Layer 2"><g id="OBJECTS"><path class="cls-1" d="M90.14,9.29C78.24-4.25,62.13,1,62,1V2c10.3,3.2,13,11.06,13.57,13.67L59.18,9.16l-.64.67c8,17.78,24.37,28,24.53,28.09l.4.06,1.46-.41-.46,2.25-1.87-1-.36,0L70.52,42.33a24.6,24.6,0,0,0-6.9-7.77C61,27,55.39,29.16,53.39,30.2a24.25,24.25,0,0,0-8.44,0c-2-1-7.6-3.15-10.22,4.36a24.6,24.6,0,0,0-6.9,7.77L16.11,38.84l-.36,0-1.89.92-.44-2.22,1.45.41.4-.06c.17-.1,16.57-10.31,24.53-28.09l-.64-.67L22.8,15.66C23.4,13.06,26,5.2,36.37,2V1C36.22,1,20.11-4.25,8.2,9.29S.79,33.43,1,33.88l.32.27,1.42.4A12.43,12.43,0,0,0,7.51,46.22l-.13.31A5.17,5.17,0,0,0,9.07,50c1.88,1.92,6.12,4.19,15.61,4.29v.08a10.41,10.41,0,0,0,.12,1.58c-2.28,3-7.71,10.75-9.74,19.72L28.18,63.47c.34.45.69.9,1.06,1.34A39.5,39.5,0,0,0,23.07,78l10.06-9.32c.64.56,1.29,1.1,2,1.62A30,30,0,0,0,31,79.66l7.45-6.9c.59.4,1.19.8,1.77,1.17a16.75,16.75,0,0,0,18,0c.59-.37,1.18-.77,1.78-1.17l7.45,6.9a30.17,30.17,0,0,0-4.12-9.33q1-.78,1.95-1.62L75.28,78A39.69,39.69,0,0,0,69.1,64.81c.37-.44.73-.89,1.07-1.34L83.29,75.62c-2-9-7.46-16.74-9.74-19.72a11.87,11.87,0,0,0,.11-1.58v-.08c9.5-.1,13.74-2.37,15.61-4.29A5.17,5.17,0,0,0,91,46.53l-.13-.31a12.41,12.41,0,0,0,4.78-11.67l1.42-.4.32-.27C97.55,33.43,102,22.82,90.14,9.29ZM9,10A26.33,26.33,0,0,1,34.48,1.58C22.93,6,21.65,16.3,21.64,16.41l.68.52,16-6.38C30.83,26.36,16.7,35.82,14.93,37L1.82,33.26C1.27,31.72-1.62,22,9,10ZM8.4,46.72l5.86-6L16,39.86l11.32,3.37-.18.39c0,.08-.09.17-.13.26-.12.26-.24.52-.35.78s-.14.35-.21.52-.16.37-.22.56-.24.65-.35,1c0,.05,0,.09,0,.14a24.13,24.13,0,0,0-1.14,6.39C10.09,53.1,8.56,47.77,8.4,46.72ZM57.62,73.09a15.77,15.77,0,0,1-16.89,0c-6.87-4.38-15-11.19-15-18.77,0-.19,0-.38,0-.57,0-.45,0-.89.06-1.33a.34.34,0,0,0,0-.1c0-.4.08-.81.14-1.21a1.1,1.1,0,0,1,0-.18c.05-.37.12-.74.19-1.11,0-.1,0-.2.05-.3.08-.36.17-.73.26-1.09s.15-.55.23-.82c0-.12.07-.23.1-.34.09-.29.19-.57.29-.85,0-.1.07-.2.11-.29.11-.29.22-.58.34-.86a2.44,2.44,0,0,1,.1-.24,23.48,23.48,0,0,1,43.14,0,2.56,2.56,0,0,1,.11.24c.12.28.23.57.34.85,0,.1.07.2.1.3.1.28.2.56.29.84,0,.12.07.24.1.36.08.27.16.54.23.81s.2.77.28,1.16l0,.19c.07.39.14.77.2,1.16a.77.77,0,0,0,0,.15c0,.41.1.83.13,1.25v0c0,.46.06.91.07,1.37h0c0,.19,0,.37,0,.56C72.66,61.9,64.48,68.71,57.62,73.09Zm16-19.84a24.39,24.39,0,0,0-1.14-6.38c0-.07,0-.12-.06-.18-.1-.32-.21-.63-.33-.94s-.15-.39-.23-.59-.13-.33-.2-.49l-.36-.8-.12-.25c-.07-.13-.12-.26-.19-.39l11.32-3.37,1.75.85,5.86,6C89.78,47.78,88.24,53.1,73.64,53.25Zm22.88-20L83.41,37C81.65,35.82,67.52,26.37,60,10.55l16,6.38.68-.52c0-.11-1.29-10.4-12.84-14.83C68.11.69,80.09-.63,89.39,10,99.94,22,97.07,31.72,96.52,33.26Z"/></g></g></svg>