<svg xmlns="http://www.w3.org/2000/svg" viewBox="0 0 133.78 99.77"><defs><style>.cls-1{fill:#d8bfa0;}</style></defs><title>Leo</title><g id="Layer_2" data-name="Layer 2"><g id="OBJECTS"><path class="cls-1" d="M16.48,82.67Z"/><path class="cls-1" d="M133.68,17.63c-.47-1-5-3.89-6.48-4.83a16.13,16.13,0,0,0-4.44-3.93c-.58-1.28-4.78-9.18-21-8.86l-.4.78.93,1.39C98.64.72,89.36-2.08,80.38,2.64A22.74,22.74,0,0,0,71,10.92a19.28,19.28,0,0,0-8.25,6.38C58.24,24,57.44,36.16,57.41,36.68l.79.43,3.36-2.45-4.94,6.9C51.35,46,47,47.15,39.72,49l-.56.15C32.07,50.92,27.71,57.39,27,58.59a107.81,107.81,0,0,1-14,1.7,11.37,11.37,0,0,0-8.23,4.63C2,68.39.47,70.89.07,72.35a1.27,1.27,0,0,0,.24,1.31,1.7,1.7,0,0,0,1.25.4,17.07,17.07,0,0,0,3.73-.72c1.83-.47,4.59-1.19,4.87-.43h0a6.26,6.26,0,0,0,0,2c.41,3.07-.12,4.6-.64,5.35l-.57.84,1-.06a2.23,2.23,0,0,0,1.36-.66l-.05.5,1-.83s1.4-1.27,1.4-4.47a8.21,8.21,0,0,0-1-4,2.86,2.86,0,0,0-1.13-1.85q-1.61-1.16-4.86-.28l.75-1A10.49,10.49,0,0,1,14.88,64a75.78,75.78,0,0,1,9-.27,6.84,6.84,0,0,0,2.85-.36C26.56,68,25.64,75.12,22,78.57c-4,3.85-5.28,4.1-5.54,4.1h0s.06,0,.1.16l-1,.08-1.87,12.7.07.34L16,99.53l.42.24H28l.47-.32a3.83,3.83,0,0,0-.15-3.15,2.93,2.93,0,0,0-2.58-1.09c-3.36,0-3.93-.08-3.93-.08h-.17a.49.49,0,0,1-.34-.17c-.16-.2-.47-.86.06-2.86l1.4-5.24A36.45,36.45,0,0,0,35.58,82a38.66,38.66,0,0,0,9.07-7.67,37.66,37.66,0,0,1,2.82-2.83h0c.2-.17.39-.33.58-.47h0q.26-.19.51-.36l.2-.12.11-.06C49.81,73,51,79.8,47.82,83.56a29.58,29.58,0,0,1-7.39,6.2l3,5.95H49.5l-1.12-5.94S60.17,82.35,62,78.45a37.47,37.47,0,0,0,2.32-7.88c1.86.34,3.67.71,5.31,1.06a34.44,34.44,0,0,0,8.79.48l-.84,8.11L77,84l.07.33,2.06,3.34-26.27,2.5-3.84,2.53s5.32,2.77,5.58,2.95l-5.13.11H35.21l-2.47,3.42h87.75a6.22,6.22,0,0,0,0-1.31c-.09-.26-3.32-5.41-3.32-5.41l-8.2.26s5.67-2.7,5.93-2.48-2.05-2.72-2.05-2.72h-.56L104,65.21a24.45,24.45,0,0,0,3.77-2.53l-.88,2.26.67.64a19.7,19.7,0,0,0,6.77-5.42l-.17,1.17.81.46c.18-.15,4.38-3.64,4.7-7a12.77,12.77,0,0,1,.36-2l-.07.49.85.43A13.42,13.42,0,0,0,124,46.27c3.92-3.21,3.28-9.81,3-12.65,0-.15,0-.31,0-.46l1.87,1.34.7-.11a9.19,9.19,0,0,0,1.17-9.07l1.31-2.67C132.56,21.76,134.19,18.77,133.68,17.63ZM24,62.73a78,78,0,0,0-9.16.27,11.48,11.48,0,0,0-8.18,4.83L5,70.08l.57.77c3.21-1.16,4.71-.82,5.4-.33a1.53,1.53,0,0,1,.34.33,3.68,3.68,0,0,0-.73,1c-1.06-.66-3.22-.11-5.49.48-1.37.36-3.66,1-4,.59,0,0,0-.12,0-.35.36-1.31,1.89-3.76,4.43-7.08A10.35,10.35,0,0,1,13,61.29a109.31,109.31,0,0,0,13.82-1.65c0,.55,0,1.45,0,2.59A5,5,0,0,1,24,62.73Zm82.62,24.74H91.84a3.47,3.47,0,0,0-.24-2.84A2.91,2.91,0,0,0,89,83.55c-3.36,0-3.93-.09-3.94-.09h-.16a.41.41,0,0,1-.34-.17c-.16-.19-.47-.86.06-2.86L86.08,75c.66-.52,3.83-3,8.32-5.82l.5-.16ZM94.05,68.26l-.13.06c-5.12,3.27-8.56,6-8.59,6l-.17.27-1.49,5.56c-.49,1.86-.44,3.1.17,3.79a1.42,1.42,0,0,0,1.11.5c.27,0,1.16.1,4.07.1a2,2,0,0,1,1.75.65,2.53,2.53,0,0,1,.14,1.9H80l-2-3.19.53-3.57.89-8.69,1.06-5c1.38-.74,8.6-4.88,8.74-9.77v-.5l-1,0,0,.5c-.13,4.7-8.32,9-8.41,9l-.26.34-1,4.93a33.57,33.57,0,0,1-8.73-.45C64.37,69.48,58,68.3,53.39,68.45a18.46,18.46,0,0,1,6.7-3.22l-.15-1c-10.62.79-12.88,5.64-13.22,6.57a37.18,37.18,0,0,0-2.81,2.81,37.44,37.44,0,0,1-8.84,7.48c-7.37,4.28-12.71,4.78-12.76,4.79l-.44.36-1.48,5.57c-.5,1.86-.45,3.1.16,3.79a1.44,1.44,0,0,0,1.11.49,40.29,40.29,0,0,0,4.07.1,2,2,0,0,1,1.75.66,2.48,2.48,0,0,1,.15,1.9H16.72l-2-3.19,1.74-11.9h0c.63,0,2.16-.5,6.22-4.38s4.94-11.9,5.07-16.6a3,3,0,0,0,.31-.39A3.83,3.83,0,0,0,28,58.84c1.09-1.63,5.22-7.17,11.41-8.74L40,50c7.15-1.81,11.88-3,17.35-7.66l6.41-8.94A18.31,18.31,0,0,0,74.05,50.16l.23-3.94s.3,5.2,4.29,8.27l3.87-9.38S89,42.87,91.8,54c2.38,9.38,13.21,7.73,16.41,7C105.44,63.74,100.46,66.31,94.05,68.26ZM129.74,25.1v.44a8.26,8.26,0,0,1-.69,7.85l-2.19-1.55-.6,0a.18.18,0,0,0-.07.05c-1-1-4-3.54-6.93-3.55-3.7,0-15-1.09-7.68-11.43a9.25,9.25,0,0,0,1.79-6.36,20.42,20.42,0,0,1,8.42-1.35,1.37,1.37,0,0,1,.1.23l.21.25a15.61,15.61,0,0,1,4.32,3.78l.16.16c2.77,1.72,5.93,3.91,6.18,4.45a4.58,4.58,0,0,1-.63,2.24L131,19.81c-.28-.11-.56-.18-.84-.27l-1.45-.89,0-.21.07-.5-1-.14-.07.49c-.1.69,0,1.65,1.64,2.06a8.45,8.45,0,0,1,1.24.39l1.1.44c-.16.33-.34.66-.53,1Z"/><path class="cls-1" d="M121.19,15.16a27,27,0,0,1,2.92-.29,5.81,5.81,0,0,0,3,1.16l-1.8-1.16A2.53,2.53,0,0,0,121.19,15.16Z"/></g></g></svg>