<svg xmlns="http://www.w3.org/2000/svg" viewBox="0 0 131.33 79.09"><title>Taurus</title><g id="Layer_2" data-name="Layer 2"><g id="OBJECTS"><path d="M123.9,41.11a11,11,0,0,0,7.43-3.4L130.7,37c-4.19,2.48-7.47-.85-10.36-3.78a13.07,13.07,0,0,0-3.64-3,18.75,18.75,0,0,0-4.58-1.1C105.19,16.44,92.75,7.36,83.48,2A14.26,14.26,0,0,0,66.66,3.73C60.33,9.48,50.85,17.06,41.6,20.59c-1,0-8.5.05-14.2,4.41A116.24,116.24,0,0,1,12,29.24a12.39,12.39,0,0,0-8.16,6.32C1.5,39.74.22,42.69,0,44.34a1.37,1.37,0,0,0,.44,1.34,1.53,1.53,0,0,0,.93.26,14,14,0,0,0,4.38-1.41c1.93-.81,4.84-2.05,5.28-1.23h0a6.59,6.59,0,0,0,.28,2.2c.93,3.28.6,5,.15,6l-.44.91,1-.2a2.47,2.47,0,0,0,1.42-1l0,.54.82-1c.06-.06,1.31-1.58.8-5a8.93,8.93,0,0,0-1.68-4.21A3.05,3.05,0,0,0,12,39.69c-1.29-.66-3.1-.48-5.4.53l.71-1.35a11.56,11.56,0,0,1,7.44-6c2.76-.64,5.32-1.14,7.53-1.46a39,39,0,0,0-3.16,10.19c-.56,2.71-1,5-2.08,6.41a27.16,27.16,0,0,1-4.49,4.87l-.16.6c0,.07,2.89,6.85-2,15.44l-.74,8.75.22.46a7.58,7.58,0,0,0,3.94,1,11.28,11.28,0,0,0,4.34-.93l.29-.6-2-7c.23-1.09,2.18-9.69,7.15-11.63,1.5-.59,3-1.07,4.45-1.54,3.81-1.23,7.13-2.31,9.2-4.7,1.49,1.62,7.18,6.54,20.39,6.09-.26.56-.54,1.12-.87,1.69l-.61,7.69-12,1.13L40.28,71.8s5.32,2.77,5.58,2.94l-12,.14H26.42L24,78.28h83.47a6.23,6.23,0,0,0,0-1.31c-.08-.26-3.31-5.41-3.31-5.41l-8.21.26s5.68-2.71,5.94-2.49-2-2.71-2-2.71H89.93l-1.79-6.28a25.85,25.85,0,0,1,3.61-8.86l.38-.42V51a10,10,0,0,1,1.64-1.68,4.07,4.07,0,0,0,.11.54l.13.2c3.32,3.26,7.71,1.77,7.9,1.7l.32-.35c.72-3.1,6.42-8.64,6.48-8.7l.12-.18c.05-.13.11-.3.17-.49a19.08,19.08,0,0,1,4.41,2.29,9.58,9.58,0,0,0,5.47,1.83,11,11,0,0,0,7.42-3.4l-.63-.76c-4.19,2.48-7.47-.85-10.36-3.79-.41-.41-.8-.81-1.18-1.17a18.55,18.55,0,0,1,4.32,2.25A9.55,9.55,0,0,0,123.9,41.11ZM27.84,28.54c-.38.85-1.58,1.4-3.48,1.59l-.27,0a16.77,16.77,0,0,1,1.17-1.67,14.25,14.25,0,0,1,2.23-2.29A2.82,2.82,0,0,1,27.84,28.54ZM14.47,31.88a12.58,12.58,0,0,0-8.09,6.53L4.94,41.12l.68.67c3.31-1.78,5-1.65,5.85-1.22a2.19,2.19,0,0,1,.47.34,3.63,3.63,0,0,0-.67,1.32c-1.23-.58-3.5.37-5.89,1.38-1.53.65-3.84,1.63-4.31,1.27A.53.53,0,0,1,1,44.46C1.19,43,2.47,40.05,4.7,36a11.37,11.37,0,0,1,7.48-5.82,123.49,123.49,0,0,0,13.28-3.49c-.34.36-.68.74-1,1.14a21.69,21.69,0,0,0-1.64,2.44C20.42,30.63,17.62,31.15,14.47,31.88Zm25.21,21.6C43.39,45.21,42.06,39.3,42,39.05l-1,.08a25.26,25.26,0,0,1-4.25,12.45h0c-1.84,2.48-5.2,3.57-9.1,4.83-1.46.47-3,1-4.51,1.56-5.8,2.26-7.7,12.07-7.78,12.49v.23l1.91,6.71a8.29,8.29,0,0,1-6.68,0l.64-8.11c4.5-8,2.71-14.32,2.15-15.88a31.15,31.15,0,0,0,4.39-4.82c1.17-1.55,1.67-4,2.25-6.82a36.55,36.55,0,0,1,3.44-10.56l1-.11c2.31-.23,3.76-1,4.29-2.18a3.87,3.87,0,0,0-.46-3.36c5.71-4.15,13.29-4,13.38-4l.19,0C51.28,18,60.92,10.3,67.34,4.47A13.26,13.26,0,0,1,83,2.82c9,5.25,21,14,27.91,26.12-1.46-.12-2.53-.11-2.62-.11h-.5l0,1h.5s1.32,0,3,.15c-.21.8-.69,2.64-1.24,4.69a27.8,27.8,0,0,0-6.83-.8h-.5l0,1h.39L102,40.47h0L94.08,39a14.92,14.92,0,0,1,.08-2.1c.48-3.41,3.76-5.79,3.79-5.82l-.47-.87a33.45,33.45,0,0,0-4.16,2l-.19.2a18.47,18.47,0,0,0-1.57,6.08l-1.89-.37c-.14.19-.27.34-.4.51-2.64-3.82-6.4-9.78-6.4-12.7v-.5h-1v.5c0,3.27,4,9.63,6.74,13.52a23.72,23.72,0,0,1-3.53,3.64,13.61,13.61,0,0,1,.85,4C81.64,42,69.72,39.81,67.51,39.45c-2-8.27-.14-12.33.75-13.2l-.67-.74c-.94.78-5.42,5.2-1.94,15.77l.41.34a53.23,53.23,0,0,1,13.49,3.86l-3.35,2a6.06,6.06,0,0,0-6.38-.63l-.25.3L66.9,56.56a45.44,45.44,0,0,1-6,1C49.15,58.69,42.67,55.63,39.68,53.48Zm31.91-4.34c2-.7,4,1.16,4,1.18l.58.08L82.44,47l3.18,1.21L86,47.7a19.58,19.58,0,0,1-.42,4.77,35.54,35.54,0,0,0-5.2,3c-.08,0-2,.94-5.06-.69l-1.52-.37-.31,0a39.64,39.64,0,0,1-4,1.41Zm.13,17.5-8.33.79-1.6-5.6a28.32,28.32,0,0,1,1-3.5,46.34,46.34,0,0,0,4.65-.86l1.39-.35h0a39.81,39.81,0,0,0,4.91-1.67l1.18.28c3.55,1.84,5.83.71,6,.63a35.64,35.64,0,0,1,4.37-2.62A23.1,23.1,0,0,1,83,59l-.61,7.68Zm36.2-24.57c-.72.71-5.63,5.6-6.6,8.82a7,7,0,0,1-6.53-1.46,5,5,0,0,1-.09-.76,6,6,0,0,1,.92-.45c5.58-2.17,9.71-3,12.36-6.51l.06,0C108,41.85,108,42,107.92,42.07Zm3.75-6.87c-.22-.09-.43-.17-.65-.24.59-2.19,1.09-4.14,1.28-4.86a17,17,0,0,1,4,1,13.11,13.11,0,0,1,3.3,2.78c2.27,2.31,5.22,5.31,8.81,4.91a8.16,8.16,0,0,1-9.43-.32,18.57,18.57,0,0,0-6.91-3.05Z"/></g></g></svg>