<svg xmlns="http://www.w3.org/2000/svg" viewBox="0 0 314.59 380.04"><title>Asset 13</title><g id="Layer_2" data-name="Layer 2"><g id="Layer_1-2" data-name="Layer 1"><path d="M0,190Q0,113.89,0,37.76C0,20.6,9.19,7,24.42,2A43.6,43.6,0,0,1,37.68.1Q157.31-.06,276.92,0c22.52,0,37.64,15.24,37.65,37.73q0,152.25,0,304.49c0,22.46-15.17,37.7-37.66,37.72q-119.63.12-239.24,0C15,380,0,364.66,0,341.87Q0,265.94,0,190ZM81,368c1.21.07,2.07.16,2.92.16q96.75,0,193.5,0c15.31,0,25.31-10.23,25.31-25.52q0-152.61,0-305.24a27.5,27.5,0,0,0-1.17-8.48c-5.14-15.37-18.17-19-34.63-16.4V136.58c0,1.37,0,2.75-.05,4.12a9.56,9.56,0,0,1-7.67,9c-4,.91-7.08-.55-9.79-3.31-4.35-4.41-8.71-8.8-13.32-13.45-4.57,4.65-8.61,8.9-12.83,13a15,15,0,0,1-5.17,3.54c-6.68,2.29-12.75-2.68-12.75-10.33q0-61.31,0-122.62V12.06H81Zm-12.24-356c-1.22-.08-2.31-.21-3.41-.21-9.37,0-18.75-.09-28.12,0C21.87,12,11.9,22.09,11.9,37.4q0,152.61,0,305.22c0,15.3,10,25.37,25.29,25.55,9.5.1,19,0,28.5,0,1,0,1.94-.16,3-.26Zm148.77,0V135.4c3.82-4,6.83-7.34,10-10.51,6.1-6.14,11.14-6.08,17.34.11,3.13,3.14,6.22,6.31,9.88,10V12.08Z"/><path d="M194.92,306.32H131.55a22.15,22.15,0,0,1-3.74-.11,5.53,5.53,0,0,1-4.91-5.35,5.36,5.36,0,0,1,4.09-5.95,15.63,15.63,0,0,1,4.44-.44q63.36,0,126.74,0a16.05,16.05,0,0,1,4.44.4,5.37,5.37,0,0,1,4.16,6.24,5.49,5.49,0,0,1-5.11,5.13,23.68,23.68,0,0,1-3.37.08Z"/><path d="M194.92,266.7q-31.48,0-63,0a20.88,20.88,0,0,1-4.48-.21,5.44,5.44,0,0,1-4.57-5.61,5.36,5.36,0,0,1,4.1-5.59,16.1,16.1,0,0,1,4.45-.42q63.36,0,126.72,0a27.26,27.26,0,0,1,3,.08c3.63.42,5.84,2.86,5.67,6.19a5.63,5.63,0,0,1-5.92,5.51c-6.62.14-13.24.07-19.86.07Z"/></g></g></svg>